999
"DXF R12 Output" (www.mydxf.blogspot.com)
 0 
SECTION
 2 
HEADER
 9 
$ACADVER
 1 
AC1009
 9 
$EXTMIN
 10 
 0 
 20 
 0 
 9 
$EXTMAX
 10 
 8.5 
 20 
 11 
 0 
ENDSEC
 0 
SECTION
 2 
ENTITIES
0
LINE
8
Layer 1
10
-19.951500
20
66.805000
11
66.069800
21
66.805000
0
LINE
8
Layer 1
10
66.069800
20
66.805000
11
66.069800
21
93.686700
0
LINE
8
Layer 1
10
66.069800
20
93.686700
11
-19.951500
21
93.686700
0
LINE
8
Layer 1
10
-19.951500
20
93.686700
11
-19.951500
21
66.805000
0
LINE
8
Layer 1
10
-5.868600
20
87.428400
11
-1.776410
21
87.428400
0
LINE
8
Layer 1
10
-1.776410
20
87.428400
11
-1.676629
21
87.387070
0
LINE
8
Layer 1
10
-1.676629
20
87.387070
11
-1.635299
21
87.287289
0
LINE
8
Layer 1
10
-1.635299
20
87.287289
11
-1.635300
21
83.957100
0
LINE
8
Layer 1
10
-1.635300
20
83.957100
11
-1.676630
21
83.857319
0
LINE
8
Layer 1
10
-1.676630
20
83.857319
11
-1.776411
21
83.815989
0
LINE
8
Layer 1
10
-1.776411
20
83.815989
11
-5.868630
21
83.815900
0
LINE
8
Layer 1
10
-5.868630
20
83.815900
11
-5.968411
21
83.857230
0
LINE
8
Layer 1
10
-5.968411
20
83.857230
11
-6.009741
21
83.957011
0
LINE
8
Layer 1
10
-6.009741
20
83.957011
11
-6.009740
21
87.287300
0
LINE
8
Layer 1
10
-6.009740
20
87.287300
11
-5.968410
21
87.387081
0
LINE
8
Layer 1
10
-5.968410
20
87.387081
11
-5.868629
21
87.428411
0
LINE
8
Layer 1
10
-5.868629
20
87.428411
11
-5.868600
21
87.428400
0
LINE
8
Layer 1
10
-18.637500
20
71.299400
11
-14.545300
21
71.299400
0
LINE
8
Layer 1
10
-14.545300
20
71.299400
11
-14.445519
21
71.258070
0
LINE
8
Layer 1
10
-14.445519
20
71.258070
11
-14.404189
21
71.158289
0
LINE
8
Layer 1
10
-14.404189
20
71.158289
11
-14.404100
21
67.828100
0
LINE
8
Layer 1
10
-14.404100
20
67.828100
11
-14.445430
21
67.728319
0
LINE
8
Layer 1
10
-14.445430
20
67.728319
11
-14.545211
21
67.686989
0
LINE
8
Layer 1
10
-14.545211
20
67.686989
11
-18.637500
21
67.687000
0
LINE
8
Layer 1
10
-18.637500
20
67.687000
11
-18.737281
21
67.728330
0
LINE
8
Layer 1
10
-18.737281
20
67.728330
11
-18.778611
21
67.828111
0
LINE
8
Layer 1
10
-18.778611
20
67.828111
11
-18.778600
21
71.158300
0
LINE
8
Layer 1
10
-18.778600
20
71.158300
11
-18.737270
21
71.258081
0
LINE
8
Layer 1
10
-18.737270
20
71.258081
11
-18.637489
21
71.299411
0
LINE
8
Layer 1
10
-18.637489
20
71.299411
11
-18.637500
21
71.299400
0
LINE
8
Layer 1
10
-11.916950
20
71.299400
11
-7.824710
21
71.299400
0
LINE
8
Layer 1
10
-7.824710
20
71.299400
11
-7.724929
21
71.258070
0
LINE
8
Layer 1
10
-7.724929
20
71.258070
11
-7.683599
21
71.158289
0
LINE
8
Layer 1
10
-7.683599
20
71.158289
11
-7.683600
21
67.828100
0
LINE
8
Layer 1
10
-7.683600
20
67.828100
11
-7.724930
21
67.728319
0
LINE
8
Layer 1
10
-7.724930
20
67.728319
11
-7.824711
21
67.686989
0
LINE
8
Layer 1
10
-7.824711
20
67.686989
11
-11.916900
21
67.687000
0
LINE
8
Layer 1
10
-11.916900
20
67.687000
11
-12.016681
21
67.728330
0
LINE
8
Layer 1
10
-12.016681
20
67.728330
11
-12.058011
21
67.828111
0
LINE
8
Layer 1
10
-12.058011
20
67.828111
11
-12.058000
21
71.158300
0
LINE
8
Layer 1
10
-12.058000
20
71.158300
11
-12.016670
21
71.258081
0
LINE
8
Layer 1
10
-12.016670
20
71.258081
11
-11.916889
21
71.299411
0
LINE
8
Layer 1
10
-11.916889
20
71.299411
11
-11.916950
21
71.299400
0
LINE
8
Layer 1
10
-5.196680
20
71.299400
11
-1.104440
21
71.299400
0
LINE
8
Layer 1
10
-1.104440
20
71.299400
11
-1.004659
21
71.258070
0
LINE
8
Layer 1
10
-1.004659
20
71.258070
11
-0.963329
21
71.158289
0
LINE
8
Layer 1
10
-0.963329
20
71.158289
11
-0.963325
21
67.828100
0
LINE
8
Layer 1
10
-0.963325
20
67.828100
11
-1.004655
21
67.728319
0
LINE
8
Layer 1
10
-1.004655
20
67.728319
11
-1.104436
21
67.686989
0
LINE
8
Layer 1
10
-1.104436
20
67.686989
11
-5.196660
21
67.687000
0
LINE
8
Layer 1
10
-5.196660
20
67.687000
11
-5.296441
21
67.728330
0
LINE
8
Layer 1
10
-5.296441
20
67.728330
11
-5.337771
21
67.828111
0
LINE
8
Layer 1
10
-5.337771
20
67.828111
11
-5.337770
21
71.158300
0
LINE
8
Layer 1
10
-5.337770
20
71.158300
11
-5.296440
21
71.258081
0
LINE
8
Layer 1
10
-5.296440
20
71.258081
11
-5.196659
21
71.299411
0
LINE
8
Layer 1
10
-5.196659
20
71.299411
11
-5.196680
21
71.299400
0
LINE
8
Layer 1
10
14.964720
20
71.299400
11
19.056900
21
71.299400
0
LINE
8
Layer 1
10
19.056900
20
71.299400
11
19.156681
21
71.258070
0
LINE
8
Layer 1
10
19.156681
20
71.258070
11
19.198011
21
71.158289
0
LINE
8
Layer 1
10
19.198011
20
71.158289
11
19.198000
21
67.828100
0
LINE
8
Layer 1
10
19.198000
20
67.828100
11
19.156670
21
67.728319
0
LINE
8
Layer 1
10
19.156670
20
67.728319
11
19.056889
21
67.686989
0
LINE
8
Layer 1
10
19.056889
20
67.686989
11
14.964700
21
67.687000
0
LINE
8
Layer 1
10
14.964700
20
67.687000
11
14.864919
21
67.728330
0
LINE
8
Layer 1
10
14.864919
20
67.728330
11
14.823589
21
67.828111
0
LINE
8
Layer 1
10
14.823589
20
67.828111
11
14.823600
21
71.158300
0
LINE
8
Layer 1
10
14.823600
20
71.158300
11
14.864930
21
71.258081
0
LINE
8
Layer 1
10
14.864930
20
71.258081
11
14.964711
21
71.299411
0
LINE
8
Layer 1
10
14.964711
20
71.299411
11
14.964720
21
71.299400
0
LINE
8
Layer 1
10
35.125820
20
71.299400
11
39.218000
21
71.299400
0
LINE
8
Layer 1
10
39.218000
20
71.299400
11
39.317781
21
71.258070
0
LINE
8
Layer 1
10
39.317781
20
71.258070
11
39.359111
21
71.158289
0
LINE
8
Layer 1
10
39.359111
20
71.158289
11
39.359100
21
67.828100
0
LINE
8
Layer 1
10
39.359100
20
67.828100
11
39.317770
21
67.728319
0
LINE
8
Layer 1
10
39.317770
20
67.728319
11
39.217989
21
67.686989
0
LINE
8
Layer 1
10
39.217989
20
67.686989
11
35.125800
21
67.687000
0
LINE
8
Layer 1
10
35.125800
20
67.687000
11
35.026019
21
67.728330
0
LINE
8
Layer 1
10
35.026019
20
67.728330
11
34.984689
21
67.828111
0
LINE
8
Layer 1
10
34.984689
20
67.828111
11
34.984700
21
71.158300
0
LINE
8
Layer 1
10
34.984700
20
71.158300
11
35.026030
21
71.258081
0
LINE
8
Layer 1
10
35.026030
20
71.258081
11
35.125811
21
71.299411
0
LINE
8
Layer 1
10
35.125811
20
71.299411
11
35.125820
21
71.299400
0
LINE
8
Layer 1
10
41.846370
20
71.299400
11
45.938600
21
71.299400
0
LINE
8
Layer 1
10
45.938600
20
71.299400
11
46.038381
21
71.258070
0
LINE
8
Layer 1
10
46.038381
20
71.258070
11
46.079711
21
71.158289
0
LINE
8
Layer 1
10
46.079711
20
71.158289
11
46.079700
21
67.828100
0
LINE
8
Layer 1
10
46.079700
20
67.828100
11
46.038370
21
67.728319
0
LINE
8
Layer 1
10
46.038370
20
67.728319
11
45.938589
21
67.686989
0
LINE
8
Layer 1
10
45.938589
20
67.686989
11
41.846400
21
67.687000
0
LINE
8
Layer 1
10
41.846400
20
67.687000
11
41.746619
21
67.728330
0
LINE
8
Layer 1
10
41.746619
20
67.728330
11
41.705289
21
67.828111
0
LINE
8
Layer 1
10
41.705289
20
67.828111
11
41.705300
21
71.158300
0
LINE
8
Layer 1
10
41.705300
20
71.158300
11
41.746630
21
71.258081
0
LINE
8
Layer 1
10
41.746630
20
71.258081
11
41.846411
21
71.299411
0
LINE
8
Layer 1
10
41.846411
20
71.299411
11
41.846370
21
71.299400
0
LINE
8
Layer 1
10
50.582830
20
71.299400
11
54.675000
21
71.299400
0
LINE
8
Layer 1
10
54.675000
20
71.299400
11
54.774781
21
71.258070
0
LINE
8
Layer 1
10
54.774781
20
71.258070
11
54.816111
21
71.158289
0
LINE
8
Layer 1
10
54.816111
20
71.158289
11
54.816200
21
67.828100
0
LINE
8
Layer 1
10
54.816200
20
67.828100
11
54.774870
21
67.728319
0
LINE
8
Layer 1
10
54.774870
20
67.728319
11
54.675089
21
67.686989
0
LINE
8
Layer 1
10
54.675089
20
67.686989
11
50.582800
21
67.687000
0
LINE
8
Layer 1
10
50.582800
20
67.687000
11
50.483019
21
67.728330
0
LINE
8
Layer 1
10
50.483019
20
67.728330
11
50.441689
21
67.828111
0
LINE
8
Layer 1
10
50.441689
20
67.828111
11
50.441700
21
71.158300
0
LINE
8
Layer 1
10
50.441700
20
71.158300
11
50.483030
21
71.258081
0
LINE
8
Layer 1
10
50.483030
20
71.258081
11
50.582811
21
71.299411
0
LINE
8
Layer 1
10
50.582811
20
71.299411
11
50.582830
21
71.299400
0
LINE
8
Layer 1
10
55.959160
20
71.299400
11
60.051400
21
71.299400
0
LINE
8
Layer 1
10
60.051400
20
71.299400
11
60.151181
21
71.258070
0
LINE
8
Layer 1
10
60.151181
20
71.258070
11
60.192511
21
71.158289
0
LINE
8
Layer 1
10
60.192511
20
71.158289
11
60.192500
21
67.828100
0
LINE
8
Layer 1
10
60.192500
20
67.828100
11
60.151170
21
67.728319
0
LINE
8
Layer 1
10
60.151170
20
67.728319
11
60.051389
21
67.686989
0
LINE
8
Layer 1
10
60.051389
20
67.686989
11
55.959200
21
67.687000
0
LINE
8
Layer 1
10
55.959200
20
67.687000
11
55.859419
21
67.728330
0
LINE
8
Layer 1
10
55.859419
20
67.728330
11
55.818089
21
67.828111
0
LINE
8
Layer 1
10
55.818089
20
67.828111
11
55.818000
21
71.158300
0
LINE
8
Layer 1
10
55.818000
20
71.158300
11
55.859330
21
71.258081
0
LINE
8
Layer 1
10
55.859330
20
71.258081
11
55.959111
21
71.299411
0
LINE
8
Layer 1
10
55.959111
20
71.299411
11
55.959160
21
71.299400
0
LINE
8
Layer 1
10
61.335490
20
71.299400
11
65.427700
21
71.299400
0
LINE
8
Layer 1
10
65.427700
20
71.299400
11
65.568811
21
71.158289
0
LINE
8
Layer 1
10
65.568811
20
71.158289
11
65.568800
21
67.828100
0
LINE
8
Layer 1
10
65.568800
20
67.828100
11
65.527470
21
67.728319
0
LINE
8
Layer 1
10
65.527470
20
67.728319
11
65.427689
21
67.686989
0
LINE
8
Layer 1
10
65.427689
20
67.686989
11
61.335500
21
67.687000
0
LINE
8
Layer 1
10
61.335500
20
67.687000
11
61.235719
21
67.728330
0
LINE
8
Layer 1
10
61.235719
20
67.728330
11
61.194389
21
67.828111
0
LINE
8
Layer 1
10
61.194389
20
67.828111
11
61.194400
21
71.158300
0
LINE
8
Layer 1
10
61.194400
20
71.158300
11
61.235730
21
71.258081
0
LINE
8
Layer 1
10
61.235730
20
71.258081
11
61.335511
21
71.299411
0
LINE
8
Layer 1
10
61.335511
20
71.299411
11
61.335490
21
71.299400
0
LINE
8
Layer 1
10
-17.965210
20
87.428400
11
-13.873000
21
87.428400
0
LINE
8
Layer 1
10
-13.873000
20
87.428400
11
-13.773219
21
87.387070
0
LINE
8
Layer 1
10
-13.773219
20
87.387070
11
-13.731889
21
87.287289
0
LINE
8
Layer 1
10
-13.731889
20
87.287289
11
-13.731900
21
83.957100
0
LINE
8
Layer 1
10
-13.731900
20
83.957100
11
-13.773230
21
83.857319
0
LINE
8
Layer 1
10
-13.773230
20
83.857319
11
-13.873011
21
83.815989
0
LINE
8
Layer 1
10
-13.873011
20
83.815989
11
-17.965200
21
83.815900
0
LINE
8
Layer 1
10
-17.965200
20
83.815900
11
-18.106311
21
83.957011
0
LINE
8
Layer 1
10
-18.106311
20
83.957011
11
-18.106300
21
87.287300
0
LINE
8
Layer 1
10
-18.106300
20
87.287300
11
-17.965189
21
87.428411
0
LINE
8
Layer 1
10
-17.965189
20
87.428411
11
-17.965210
21
87.428400
0
LINE
8
Layer 1
10
-11.244940
20
87.428400
11
-7.152740
21
87.428400
0
LINE
8
Layer 1
10
-7.152740
20
87.428400
11
-7.052959
21
87.387070
0
LINE
8
Layer 1
10
-7.052959
20
87.387070
11
-7.011629
21
87.287289
0
LINE
8
Layer 1
10
-7.011629
20
87.287289
11
-7.011620
21
83.957100
0
LINE
8
Layer 1
10
-7.011620
20
83.957100
11
-7.052950
21
83.857319
0
LINE
8
Layer 1
10
-7.052950
20
83.857319
11
-7.152731
21
83.815989
0
LINE
8
Layer 1
10
-7.152731
20
83.815989
11
-11.245000
21
83.815900
0
LINE
8
Layer 1
10
-11.245000
20
83.815900
11
-11.344781
21
83.857230
0
LINE
8
Layer 1
10
-11.344781
20
83.857230
11
-11.386111
21
83.957011
0
LINE
8
Layer 1
10
-11.386111
20
83.957011
11
-11.386100
21
87.287300
0
LINE
8
Layer 1
10
-11.386100
20
87.287300
11
-11.344770
21
87.387081
0
LINE
8
Layer 1
10
-11.344770
20
87.387081
11
-11.244989
21
87.428411
0
LINE
8
Layer 1
10
-11.244989
20
87.428411
11
-11.244940
21
87.428400
0
LINE
8
Layer 1
10
-0.492240
20
87.428400
11
3.599920
21
87.428400
0
LINE
8
Layer 1
10
3.599920
20
87.428400
11
3.699701
21
87.387070
0
LINE
8
Layer 1
10
3.699701
20
87.387070
11
3.741031
21
87.287289
0
LINE
8
Layer 1
10
3.741031
20
87.287289
11
3.741030
21
83.957100
0
LINE
8
Layer 1
10
3.741030
20
83.957100
11
3.699700
21
83.857319
0
LINE
8
Layer 1
10
3.699700
20
83.857319
11
3.599919
21
83.815989
0
LINE
8
Layer 1
10
3.599919
20
83.815989
11
-0.492297
21
83.815900
0
LINE
8
Layer 1
10
-0.492297
20
83.815900
11
-0.592078
21
83.857230
0
LINE
8
Layer 1
10
-0.592078
20
83.857230
11
-0.633408
21
83.957011
0
LINE
8
Layer 1
10
-0.633408
20
83.957011
11
-0.633408
21
87.287300
0
LINE
8
Layer 1
10
-0.633408
20
87.287300
11
-0.592078
21
87.387081
0
LINE
8
Layer 1
10
-0.592078
20
87.387081
11
-0.492297
21
87.428411
0
LINE
8
Layer 1
10
-0.492297
20
87.428411
11
-0.492240
21
87.428400
0
LINE
8
Layer 1
10
4.884090
20
87.428400
11
8.976250
21
87.428400
0
LINE
8
Layer 1
10
8.976250
20
87.428400
11
9.076031
21
87.387070
0
LINE
8
Layer 1
10
9.076031
20
87.387070
11
9.117361
21
87.287289
0
LINE
8
Layer 1
10
9.117361
20
87.287289
11
9.117360
21
83.957100
0
LINE
8
Layer 1
10
9.117360
20
83.957100
11
9.076030
21
83.857319
0
LINE
8
Layer 1
10
9.076030
20
83.857319
11
8.976249
21
83.815989
0
LINE
8
Layer 1
10
8.976249
20
83.815989
11
4.884030
21
83.815900
0
LINE
8
Layer 1
10
4.884030
20
83.815900
11
4.784249
21
83.857230
0
LINE
8
Layer 1
10
4.784249
20
83.857230
11
4.742919
21
83.957011
0
LINE
8
Layer 1
10
4.742919
20
83.957011
11
4.742920
21
87.287300
0
LINE
8
Layer 1
10
4.742920
20
87.287300
11
4.784250
21
87.387081
0
LINE
8
Layer 1
10
4.784250
20
87.387081
11
4.884031
21
87.428411
0
LINE
8
Layer 1
10
4.884031
20
87.428411
11
4.884090
21
87.428400
0
LINE
8
Layer 1
10
10.260420
20
87.428400
11
14.352600
21
87.428400
0
LINE
8
Layer 1
10
14.352600
20
87.428400
11
14.452381
21
87.387070
0
LINE
8
Layer 1
10
14.452381
20
87.387070
11
14.493711
21
87.287289
0
LINE
8
Layer 1
10
14.493711
20
87.287289
11
14.493700
21
83.957100
0
LINE
8
Layer 1
10
14.493700
20
83.957100
11
14.452370
21
83.857319
0
LINE
8
Layer 1
10
14.452370
20
83.857319
11
14.352589
21
83.815989
0
LINE
8
Layer 1
10
14.352589
20
83.815989
11
10.260400
21
83.815900
0
LINE
8
Layer 1
10
10.260400
20
83.815900
11
10.160619
21
83.857230
0
LINE
8
Layer 1
10
10.160619
20
83.857230
11
10.119289
21
83.957011
0
LINE
8
Layer 1
10
10.119289
20
83.957011
11
10.119300
21
87.287300
0
LINE
8
Layer 1
10
10.119300
20
87.287300
11
10.160630
21
87.387081
0
LINE
8
Layer 1
10
10.160630
20
87.387081
11
10.260411
21
87.428411
0
LINE
8
Layer 1
10
10.260411
20
87.428411
11
10.260420
21
87.428400
0
LINE
8
Layer 1
10
15.636750
20
87.428400
11
19.728900
21
87.428400
0
LINE
8
Layer 1
10
19.728900
20
87.428400
11
19.828681
21
87.387070
0
LINE
8
Layer 1
10
19.828681
20
87.387070
11
19.870011
21
87.287289
0
LINE
8
Layer 1
10
19.870011
20
87.287289
11
19.870000
21
83.957100
0
LINE
8
Layer 1
10
19.870000
20
83.957100
11
19.828670
21
83.857319
0
LINE
8
Layer 1
10
19.828670
20
83.857319
11
19.728889
21
83.815989
0
LINE
8
Layer 1
10
19.728889
20
83.815989
11
15.636700
21
83.815900
0
LINE
8
Layer 1
10
15.636700
20
83.815900
11
15.536919
21
83.857230
0
LINE
8
Layer 1
10
15.536919
20
83.857230
11
15.495589
21
83.957011
0
LINE
8
Layer 1
10
15.495589
20
83.957011
11
15.495600
21
87.287300
0
LINE
8
Layer 1
10
15.495600
20
87.287300
11
15.536930
21
87.387081
0
LINE
8
Layer 1
10
15.536930
20
87.387081
11
15.636711
21
87.428411
0
LINE
8
Layer 1
10
15.636711
20
87.428411
11
15.636750
21
87.428400
0
LINE
8
Layer 1
10
21.013080
20
87.428400
11
25.105200
21
87.428400
0
LINE
8
Layer 1
10
25.105200
20
87.428400
11
25.246311
21
87.287289
0
LINE
8
Layer 1
10
25.246311
20
87.287289
11
25.246300
21
83.957100
0
LINE
8
Layer 1
10
25.246300
20
83.957100
11
25.204970
21
83.857319
0
LINE
8
Layer 1
10
25.204970
20
83.857319
11
25.105189
21
83.815989
0
LINE
8
Layer 1
10
25.105189
20
83.815989
11
21.013000
21
83.815900
0
LINE
8
Layer 1
10
21.013000
20
83.815900
11
20.913219
21
83.857230
0
LINE
8
Layer 1
10
20.913219
20
83.857230
11
20.871889
21
83.957011
0
LINE
8
Layer 1
10
20.871889
20
83.957011
11
20.871900
21
87.287300
0
LINE
8
Layer 1
10
20.871900
20
87.287300
11
20.913230
21
87.387081
0
LINE
8
Layer 1
10
20.913230
20
87.387081
11
21.013011
21
87.428411
0
LINE
8
Layer 1
10
21.013011
20
87.428411
11
21.013080
21
87.428400
0
LINE
8
Layer 1
10
26.389410
20
87.428400
11
30.481600
21
87.428400
0
LINE
8
Layer 1
10
30.481600
20
87.428400
11
30.581381
21
87.387070
0
LINE
8
Layer 1
10
30.581381
20
87.387070
11
30.622711
21
87.287289
0
LINE
8
Layer 1
10
30.622711
20
87.287289
11
30.622700
21
83.957100
0
LINE
8
Layer 1
10
30.622700
20
83.957100
11
30.581370
21
83.857319
0
LINE
8
Layer 1
10
30.581370
20
83.857319
11
30.481589
21
83.815989
0
LINE
8
Layer 1
10
30.481589
20
83.815989
11
26.389300
21
83.815900
0
LINE
8
Layer 1
10
26.389300
20
83.815900
11
26.289519
21
83.857230
0
LINE
8
Layer 1
10
26.289519
20
83.857230
11
26.248189
21
83.957011
0
LINE
8
Layer 1
10
26.248189
20
83.957011
11
26.248200
21
87.287300
0
LINE
8
Layer 1
10
26.248200
20
87.287300
11
26.389311
21
87.428411
0
LINE
8
Layer 1
10
26.389311
20
87.428411
11
26.389410
21
87.428400
0
LINE
8
Layer 1
10
31.765740
20
87.428400
11
35.857900
21
87.428400
0
LINE
8
Layer 1
10
35.857900
20
87.428400
11
35.957681
21
87.387070
0
LINE
8
Layer 1
10
35.957681
20
87.387070
11
35.999011
21
87.287289
0
LINE
8
Layer 1
10
35.999011
20
87.287289
11
35.999000
21
83.957100
0
LINE
8
Layer 1
10
35.999000
20
83.957100
11
35.957670
21
83.857319
0
LINE
8
Layer 1
10
35.957670
20
83.857319
11
35.857889
21
83.815989
0
LINE
8
Layer 1
10
35.857889
20
83.815989
11
31.765700
21
83.815900
0
LINE
8
Layer 1
10
31.765700
20
83.815900
11
31.665919
21
83.857230
0
LINE
8
Layer 1
10
31.665919
20
83.857230
11
31.624589
21
83.957011
0
LINE
8
Layer 1
10
31.624589
20
83.957011
11
31.624600
21
87.287300
0
LINE
8
Layer 1
10
31.624600
20
87.287300
11
31.665930
21
87.387081
0
LINE
8
Layer 1
10
31.665930
20
87.387081
11
31.765711
21
87.428411
0
LINE
8
Layer 1
10
31.765711
20
87.428411
11
31.765740
21
87.428400
0
LINE
8
Layer 1
10
37.142070
20
87.428400
11
41.234200
21
87.428400
0
LINE
8
Layer 1
10
41.234200
20
87.428400
11
41.333981
21
87.387070
0
LINE
8
Layer 1
10
41.333981
20
87.387070
11
41.375311
21
87.287289
0
LINE
8
Layer 1
10
41.375311
20
87.287289
11
41.375300
21
83.957100
0
LINE
8
Layer 1
10
41.375300
20
83.957100
11
41.333970
21
83.857319
0
LINE
8
Layer 1
10
41.333970
20
83.857319
11
41.234189
21
83.815989
0
LINE
8
Layer 1
10
41.234189
20
83.815989
11
37.142000
21
83.815900
0
LINE
8
Layer 1
10
37.142000
20
83.815900
11
37.042219
21
83.857230
0
LINE
8
Layer 1
10
37.042219
20
83.857230
11
37.000889
21
83.957011
0
LINE
8
Layer 1
10
37.000889
20
83.957011
11
37.000900
21
87.287300
0
LINE
8
Layer 1
10
37.000900
20
87.287300
11
37.042230
21
87.387081
0
LINE
8
Layer 1
10
37.042230
20
87.387081
11
37.142011
21
87.428411
0
LINE
8
Layer 1
10
37.142011
20
87.428411
11
37.142070
21
87.428400
0
LINE
8
Layer 1
10
42.518400
20
87.428400
11
46.610600
21
87.428400
0
LINE
8
Layer 1
10
46.610600
20
87.428400
11
46.710381
21
87.387070
0
LINE
8
Layer 1
10
46.710381
20
87.387070
11
46.751711
21
87.287289
0
LINE
8
Layer 1
10
46.751711
20
87.287289
11
46.751700
21
83.957100
0
LINE
8
Layer 1
10
46.751700
20
83.957100
11
46.710370
21
83.857319
0
LINE
8
Layer 1
10
46.710370
20
83.857319
11
46.610589
21
83.815989
0
LINE
8
Layer 1
10
46.610589
20
83.815989
11
42.518300
21
83.815900
0
LINE
8
Layer 1
10
42.518300
20
83.815900
11
42.418519
21
83.857230
0
LINE
8
Layer 1
10
42.418519
20
83.857230
11
42.377189
21
83.957011
0
LINE
8
Layer 1
10
42.377189
20
83.957011
11
42.377200
21
87.287300
0
LINE
8
Layer 1
10
42.377200
20
87.287300
11
42.418530
21
87.387081
0
LINE
8
Layer 1
10
42.418530
20
87.387081
11
42.518311
21
87.428411
0
LINE
8
Layer 1
10
42.518311
20
87.428411
11
42.518400
21
87.428400
0
LINE
8
Layer 1
10
47.894730
20
87.428400
11
51.986900
21
87.428400
0
LINE
8
Layer 1
10
51.986900
20
87.428400
11
52.086681
21
87.387070
0
LINE
8
Layer 1
10
52.086681
20
87.387070
11
52.128011
21
87.287289
0
LINE
8
Layer 1
10
52.128011
20
87.287289
11
52.128000
21
83.957100
0
LINE
8
Layer 1
10
52.128000
20
83.957100
11
52.086670
21
83.857319
0
LINE
8
Layer 1
10
52.086670
20
83.857319
11
51.986889
21
83.815989
0
LINE
8
Layer 1
10
51.986889
20
83.815989
11
47.894700
21
83.815900
0
LINE
8
Layer 1
10
47.894700
20
83.815900
11
47.794919
21
83.857230
0
LINE
8
Layer 1
10
47.794919
20
83.857230
11
47.753589
21
83.957011
0
LINE
8
Layer 1
10
47.753589
20
83.957011
11
47.753600
21
87.287300
0
LINE
8
Layer 1
10
47.753600
20
87.287300
11
47.794930
21
87.387081
0
LINE
8
Layer 1
10
47.794930
20
87.387081
11
47.894711
21
87.428411
0
LINE
8
Layer 1
10
47.894711
20
87.428411
11
47.894730
21
87.428400
0
LINE
8
Layer 1
10
54.615280
20
87.428400
11
58.707400
21
87.428400
0
LINE
8
Layer 1
10
58.707400
20
87.428400
11
58.807181
21
87.387070
0
LINE
8
Layer 1
10
58.807181
20
87.387070
11
58.848511
21
87.287289
0
LINE
8
Layer 1
10
58.848511
20
87.287289
11
58.848500
21
83.957100
0
LINE
8
Layer 1
10
58.848500
20
83.957100
11
58.807170
21
83.857319
0
LINE
8
Layer 1
10
58.807170
20
83.857319
11
58.707389
21
83.815989
0
LINE
8
Layer 1
10
58.707389
20
83.815989
11
54.615200
21
83.815900
0
LINE
8
Layer 1
10
54.615200
20
83.815900
11
54.515419
21
83.857230
0
LINE
8
Layer 1
10
54.515419
20
83.857230
11
54.474089
21
83.957011
0
LINE
8
Layer 1
10
54.474089
20
83.957011
11
54.474100
21
87.287300
0
LINE
8
Layer 1
10
54.474100
20
87.287300
11
54.515430
21
87.387081
0
LINE
8
Layer 1
10
54.515430
20
87.387081
11
54.615211
21
87.428411
0
LINE
8
Layer 1
10
54.615211
20
87.428411
11
54.615280
21
87.428400
0
LINE
8
Layer 1
10
61.335550
20
87.428400
11
65.427700
21
87.428400
0
LINE
8
Layer 1
10
65.427700
20
87.428400
11
65.568811
21
87.287289
0
LINE
8
Layer 1
10
65.568811
20
87.287289
11
65.568800
21
83.957100
0
LINE
8
Layer 1
10
65.568800
20
83.957100
11
65.527470
21
83.857319
0
LINE
8
Layer 1
10
65.527470
20
83.857319
11
65.427689
21
83.815989
0
LINE
8
Layer 1
10
65.427689
20
83.815989
11
61.335500
21
83.815900
0
LINE
8
Layer 1
10
61.335500
20
83.815900
11
61.235719
21
83.857230
0
LINE
8
Layer 1
10
61.235719
20
83.857230
11
61.194389
21
83.957011
0
LINE
8
Layer 1
10
61.194389
20
83.957011
11
61.194400
21
87.287300
0
LINE
8
Layer 1
10
61.194400
20
87.287300
11
61.235730
21
87.387081
0
LINE
8
Layer 1
10
61.235730
20
87.387081
11
61.335511
21
87.428411
0
LINE
8
Layer 1
10
61.335511
20
87.428411
11
61.335550
21
87.428400
0
LINE
8
Layer 1
10
-15.949250
20
76.675700
11
-11.857100
21
76.675700
0
LINE
8
Layer 1
10
-11.857100
20
76.675700
11
-11.757319
21
76.634370
0
LINE
8
Layer 1
10
-11.757319
20
76.634370
11
-11.715989
21
76.534589
0
LINE
8
Layer 1
10
-11.715989
20
76.534589
11
-11.716000
21
73.204400
0
LINE
8
Layer 1
10
-11.716000
20
73.204400
11
-11.757330
21
73.104619
0
LINE
8
Layer 1
10
-11.757330
20
73.104619
11
-11.857111
21
73.063289
0
LINE
8
Layer 1
10
-11.857111
20
73.063289
11
-15.949300
21
73.063300
0
LINE
8
Layer 1
10
-15.949300
20
73.063300
11
-16.049081
21
73.104630
0
LINE
8
Layer 1
10
-16.049081
20
73.104630
11
-16.090411
21
73.204411
0
LINE
8
Layer 1
10
-16.090411
20
73.204411
11
-16.090400
21
76.534600
0
LINE
8
Layer 1
10
-16.090400
20
76.534600
11
-16.049070
21
76.634381
0
LINE
8
Layer 1
10
-16.049070
20
76.634381
11
-15.949289
21
76.675711
0
LINE
8
Layer 1
10
-15.949289
20
76.675711
11
-15.949250
21
76.675700
0
LINE
8
Layer 1
10
-7.212500
20
76.675700
11
-3.120350
21
76.675700
0
LINE
8
Layer 1
10
-3.120350
20
76.675700
11
-3.020569
21
76.634370
0
LINE
8
Layer 1
10
-3.020569
20
76.634370
11
-2.979239
21
76.534589
0
LINE
8
Layer 1
10
-2.979239
20
76.534589
11
-2.979240
21
73.204400
0
LINE
8
Layer 1
10
-2.979240
20
73.204400
11
-3.020570
21
73.104619
0
LINE
8
Layer 1
10
-3.020570
20
73.104619
11
-3.120351
21
73.063289
0
LINE
8
Layer 1
10
-3.120351
20
73.063289
11
-7.212570
21
73.063300
0
LINE
8
Layer 1
10
-7.212570
20
73.063300
11
-7.353681
21
73.204411
0
LINE
8
Layer 1
10
-7.353681
20
73.204411
11
-7.353680
21
76.534600
0
LINE
8
Layer 1
10
-7.353680
20
76.534600
11
-7.312350
21
76.634381
0
LINE
8
Layer 1
10
-7.312350
20
76.634381
11
-7.212569
21
76.675711
0
LINE
8
Layer 1
10
-7.212569
20
76.675711
11
-7.212500
21
76.675700
0
LINE
8
Layer 1
10
-1.836170
20
76.675700
11
2.255980
21
76.675700
0
LINE
8
Layer 1
10
2.255980
20
76.675700
11
2.355761
21
76.634370
0
LINE
8
Layer 1
10
2.355761
20
76.634370
11
2.397091
21
76.534589
0
LINE
8
Layer 1
10
2.397091
20
76.534589
11
2.397090
21
73.204400
0
LINE
8
Layer 1
10
2.397090
20
73.204400
11
2.255979
21
73.063289
0
LINE
8
Layer 1
10
2.255979
20
73.063289
11
-1.836240
21
73.063300
0
LINE
8
Layer 1
10
-1.836240
20
73.063300
11
-1.936021
21
73.104630
0
LINE
8
Layer 1
10
-1.936021
20
73.104630
11
-1.977351
21
73.204411
0
LINE
8
Layer 1
10
-1.977351
20
73.204411
11
-1.977350
21
76.534600
0
LINE
8
Layer 1
10
-1.977350
20
76.534600
11
-1.936020
21
76.634381
0
LINE
8
Layer 1
10
-1.936020
20
76.634381
11
-1.836239
21
76.675711
0
LINE
8
Layer 1
10
-1.836239
20
76.675711
11
-1.836170
21
76.675700
0
LINE
8
Layer 1
10
3.540160
20
76.675700
11
7.632310
21
76.675700
0
LINE
8
Layer 1
10
7.632310
20
76.675700
11
7.732091
21
76.634370
0
LINE
8
Layer 1
10
7.732091
20
76.634370
11
7.773421
21
76.534589
0
LINE
8
Layer 1
10
7.773421
20
76.534589
11
7.773420
21
73.204400
0
LINE
8
Layer 1
10
7.773420
20
73.204400
11
7.732090
21
73.104619
0
LINE
8
Layer 1
10
7.732090
20
73.104619
11
7.632309
21
73.063289
0
LINE
8
Layer 1
10
7.632309
20
73.063289
11
3.540090
21
73.063300
0
LINE
8
Layer 1
10
3.540090
20
73.063300
11
3.440309
21
73.104630
0
LINE
8
Layer 1
10
3.440309
20
73.104630
11
3.398979
21
73.204411
0
LINE
8
Layer 1
10
3.398979
20
73.204411
11
3.398980
21
76.534600
0
LINE
8
Layer 1
10
3.398980
20
76.534600
11
3.440310
21
76.634381
0
LINE
8
Layer 1
10
3.440310
20
76.634381
11
3.540091
21
76.675711
0
LINE
8
Layer 1
10
3.540091
20
76.675711
11
3.540160
21
76.675700
0
LINE
8
Layer 1
10
8.916490
20
76.675700
11
13.008600
21
76.675700
0
LINE
8
Layer 1
10
13.008600
20
76.675700
11
13.108381
21
76.634370
0
LINE
8
Layer 1
10
13.108381
20
76.634370
11
13.149711
21
76.534589
0
LINE
8
Layer 1
10
13.149711
20
76.534589
11
13.149800
21
73.204400
0
LINE
8
Layer 1
10
13.149800
20
73.204400
11
13.108470
21
73.104619
0
LINE
8
Layer 1
10
13.108470
20
73.104619
11
13.008689
21
73.063289
0
LINE
8
Layer 1
10
13.008689
20
73.063289
11
8.916420
21
73.063300
0
LINE
8
Layer 1
10
8.916420
20
73.063300
11
8.816639
21
73.104630
0
LINE
8
Layer 1
10
8.816639
20
73.104630
11
8.775309
21
73.204411
0
LINE
8
Layer 1
10
8.775309
20
73.204411
11
8.775310
21
76.534600
0
LINE
8
Layer 1
10
8.775310
20
76.534600
11
8.816640
21
76.634381
0
LINE
8
Layer 1
10
8.816640
20
76.634381
11
8.916421
21
76.675711
0
LINE
8
Layer 1
10
8.916421
20
76.675711
11
8.916490
21
76.675700
0
LINE
8
Layer 1
10
14.292820
20
76.675700
11
18.385000
21
76.675700
0
LINE
8
Layer 1
10
18.385000
20
76.675700
11
18.484781
21
76.634370
0
LINE
8
Layer 1
10
18.484781
20
76.634370
11
18.526111
21
76.534589
0
LINE
8
Layer 1
10
18.526111
20
76.534589
11
18.526100
21
73.204400
0
LINE
8
Layer 1
10
18.526100
20
73.204400
11
18.484770
21
73.104619
0
LINE
8
Layer 1
10
18.484770
20
73.104619
11
18.384989
21
73.063289
0
LINE
8
Layer 1
10
18.384989
20
73.063289
11
14.292700
21
73.063300
0
LINE
8
Layer 1
10
14.292700
20
73.063300
11
14.192919
21
73.104630
0
LINE
8
Layer 1
10
14.192919
20
73.104630
11
14.151589
21
73.204411
0
LINE
8
Layer 1
10
14.151589
20
73.204411
11
14.151600
21
76.534600
0
LINE
8
Layer 1
10
14.151600
20
76.534600
11
14.192930
21
76.634381
0
LINE
8
Layer 1
10
14.192930
20
76.634381
11
14.292711
21
76.675711
0
LINE
8
Layer 1
10
14.292711
20
76.675711
11
14.292820
21
76.675700
0
LINE
8
Layer 1
10
19.669150
20
76.675700
11
23.761300
21
76.675700
0
LINE
8
Layer 1
10
23.761300
20
76.675700
11
23.861081
21
76.634370
0
LINE
8
Layer 1
10
23.861081
20
76.634370
11
23.902411
21
76.534589
0
LINE
8
Layer 1
10
23.902411
20
76.534589
11
23.902400
21
73.204400
0
LINE
8
Layer 1
10
23.902400
20
73.204400
11
23.861070
21
73.104619
0
LINE
8
Layer 1
10
23.861070
20
73.104619
11
23.761289
21
73.063289
0
LINE
8
Layer 1
10
23.761289
20
73.063289
11
19.669100
21
73.063300
0
LINE
8
Layer 1
10
19.669100
20
73.063300
11
19.527989
21
73.204411
0
LINE
8
Layer 1
10
19.527989
20
73.204411
11
19.528000
21
76.534600
0
LINE
8
Layer 1
10
19.528000
20
76.534600
11
19.669111
21
76.675711
0
LINE
8
Layer 1
10
19.669111
20
76.675711
11
19.669150
21
76.675700
0
LINE
8
Layer 1
10
25.045480
20
76.675700
11
29.137600
21
76.675700
0
LINE
8
Layer 1
10
29.137600
20
76.675700
11
29.237381
21
76.634370
0
LINE
8
Layer 1
10
29.237381
20
76.634370
11
29.278711
21
76.534589
0
LINE
8
Layer 1
10
29.278711
20
76.534589
11
29.278700
21
73.204400
0
LINE
8
Layer 1
10
29.278700
20
73.204400
11
29.237370
21
73.104619
0
LINE
8
Layer 1
10
29.237370
20
73.104619
11
29.137589
21
73.063289
0
LINE
8
Layer 1
10
29.137589
20
73.063289
11
25.045400
21
73.063300
0
LINE
8
Layer 1
10
25.045400
20
73.063300
11
24.945619
21
73.104630
0
LINE
8
Layer 1
10
24.945619
20
73.104630
11
24.904289
21
73.204411
0
LINE
8
Layer 1
10
24.904289
20
73.204411
11
24.904300
21
76.534600
0
LINE
8
Layer 1
10
24.904300
20
76.534600
11
24.945630
21
76.634381
0
LINE
8
Layer 1
10
24.945630
20
76.634381
11
25.045411
21
76.675711
0
LINE
8
Layer 1
10
25.045411
20
76.675711
11
25.045480
21
76.675700
0
LINE
8
Layer 1
10
30.421810
20
76.675700
11
34.514000
21
76.675700
0
LINE
8
Layer 1
10
34.514000
20
76.675700
11
34.613781
21
76.634370
0
LINE
8
Layer 1
10
34.613781
20
76.634370
11
34.655111
21
76.534589
0
LINE
8
Layer 1
10
34.655111
20
76.534589
11
34.655100
21
73.204400
0
LINE
8
Layer 1
10
34.655100
20
73.204400
11
34.613770
21
73.104619
0
LINE
8
Layer 1
10
34.613770
20
73.104619
11
34.513989
21
73.063289
0
LINE
8
Layer 1
10
34.513989
20
73.063289
11
30.421700
21
73.063300
0
LINE
8
Layer 1
10
30.421700
20
73.063300
11
30.321919
21
73.104630
0
LINE
8
Layer 1
10
30.321919
20
73.104630
11
30.280589
21
73.204411
0
LINE
8
Layer 1
10
30.280589
20
73.204411
11
30.280600
21
76.534600
0
LINE
8
Layer 1
10
30.280600
20
76.534600
11
30.321930
21
76.634381
0
LINE
8
Layer 1
10
30.321930
20
76.634381
11
30.421711
21
76.675711
0
LINE
8
Layer 1
10
30.421711
20
76.675711
11
30.421810
21
76.675700
0
LINE
8
Layer 1
10
35.798140
20
76.675700
11
39.890300
21
76.675700
0
LINE
8
Layer 1
10
39.890300
20
76.675700
11
39.990081
21
76.634370
0
LINE
8
Layer 1
10
39.990081
20
76.634370
11
40.031411
21
76.534589
0
LINE
8
Layer 1
10
40.031411
20
76.534589
11
40.031400
21
73.204400
0
LINE
8
Layer 1
10
40.031400
20
73.204400
11
39.990070
21
73.104619
0
LINE
8
Layer 1
10
39.990070
20
73.104619
11
39.890289
21
73.063289
0
LINE
8
Layer 1
10
39.890289
20
73.063289
11
35.798100
21
73.063300
0
LINE
8
Layer 1
10
35.798100
20
73.063300
11
35.698319
21
73.104630
0
LINE
8
Layer 1
10
35.698319
20
73.104630
11
35.656989
21
73.204411
0
LINE
8
Layer 1
10
35.656989
20
73.204411
11
35.657000
21
76.534600
0
LINE
8
Layer 1
10
35.657000
20
76.534600
11
35.698330
21
76.634381
0
LINE
8
Layer 1
10
35.698330
20
76.634381
11
35.798111
21
76.675711
0
LINE
8
Layer 1
10
35.798111
20
76.675711
11
35.798140
21
76.675700
0
LINE
8
Layer 1
10
41.174470
20
76.675700
11
45.266600
21
76.675700
0
LINE
8
Layer 1
10
45.266600
20
76.675700
11
45.366381
21
76.634370
0
LINE
8
Layer 1
10
45.366381
20
76.634370
11
45.407711
21
76.534589
0
LINE
8
Layer 1
10
45.407711
20
76.534589
11
45.407700
21
73.204400
0
LINE
8
Layer 1
10
45.407700
20
73.204400
11
45.366370
21
73.104619
0
LINE
8
Layer 1
10
45.366370
20
73.104619
11
45.266589
21
73.063289
0
LINE
8
Layer 1
10
45.266589
20
73.063289
11
41.174400
21
73.063300
0
LINE
8
Layer 1
10
41.174400
20
73.063300
11
41.074619
21
73.104630
0
LINE
8
Layer 1
10
41.074619
20
73.104630
11
41.033289
21
73.204411
0
LINE
8
Layer 1
10
41.033289
20
73.204411
11
41.033300
21
76.534600
0
LINE
8
Layer 1
10
41.033300
20
76.534600
11
41.074630
21
76.634381
0
LINE
8
Layer 1
10
41.074630
20
76.634381
11
41.174411
21
76.675711
0
LINE
8
Layer 1
10
41.174411
20
76.675711
11
41.174470
21
76.675700
0
LINE
8
Layer 1
10
48.566710
20
76.675700
11
52.658900
21
76.675700
0
LINE
8
Layer 1
10
52.658900
20
76.675700
11
52.758681
21
76.634370
0
LINE
8
Layer 1
10
52.758681
20
76.634370
11
52.800011
21
76.534589
0
LINE
8
Layer 1
10
52.800011
20
76.534589
11
52.800000
21
73.204400
0
LINE
8
Layer 1
10
52.800000
20
73.204400
11
52.758670
21
73.104619
0
LINE
8
Layer 1
10
52.758670
20
73.104619
11
52.658889
21
73.063289
0
LINE
8
Layer 1
10
52.658889
20
73.063289
11
48.566600
21
73.063300
0
LINE
8
Layer 1
10
48.566600
20
73.063300
11
48.466819
21
73.104630
0
LINE
8
Layer 1
10
48.466819
20
73.104630
11
48.425489
21
73.204411
0
LINE
8
Layer 1
10
48.425489
20
73.204411
11
48.425500
21
76.534600
0
LINE
8
Layer 1
10
48.425500
20
76.534600
11
48.466830
21
76.634381
0
LINE
8
Layer 1
10
48.466830
20
76.634381
11
48.566611
21
76.675711
0
LINE
8
Layer 1
10
48.566611
20
76.675711
11
48.566710
21
76.675700
0
LINE
8
Layer 1
10
55.959230
20
76.675700
11
60.051400
21
76.675700
0
LINE
8
Layer 1
10
60.051400
20
76.675700
11
60.151181
21
76.634370
0
LINE
8
Layer 1
10
60.151181
20
76.634370
11
60.192511
21
76.534589
0
LINE
8
Layer 1
10
60.192511
20
76.534589
11
60.192500
21
73.204400
0
LINE
8
Layer 1
10
60.192500
20
73.204400
11
60.151170
21
73.104619
0
LINE
8
Layer 1
10
60.151170
20
73.104619
11
60.051389
21
73.063289
0
LINE
8
Layer 1
10
60.051389
20
73.063289
11
55.959200
21
73.063300
0
LINE
8
Layer 1
10
55.959200
20
73.063300
11
55.859419
21
73.104630
0
LINE
8
Layer 1
10
55.859419
20
73.104630
11
55.818089
21
73.204411
0
LINE
8
Layer 1
10
55.818089
20
73.204411
11
55.818000
21
76.534600
0
LINE
8
Layer 1
10
55.818000
20
76.534600
11
55.859330
21
76.634381
0
LINE
8
Layer 1
10
55.859330
20
76.634381
11
55.959111
21
76.675711
0
LINE
8
Layer 1
10
55.959111
20
76.675711
11
55.959230
21
76.675700
0
LINE
8
Layer 1
10
61.335560
20
76.675700
11
65.427700
21
76.675700
0
LINE
8
Layer 1
10
65.427700
20
76.675700
11
65.568811
21
76.534589
0
LINE
8
Layer 1
10
65.568811
20
76.534589
11
65.568800
21
73.204400
0
LINE
8
Layer 1
10
65.568800
20
73.204400
11
65.527470
21
73.104619
0
LINE
8
Layer 1
10
65.527470
20
73.104619
11
65.427689
21
73.063289
0
LINE
8
Layer 1
10
65.427689
20
73.063289
11
61.335500
21
73.063300
0
LINE
8
Layer 1
10
61.335500
20
73.063300
11
61.235719
21
73.104630
0
LINE
8
Layer 1
10
61.235719
20
73.104630
11
61.194389
21
73.204411
0
LINE
8
Layer 1
10
61.194389
20
73.204411
11
61.194400
21
76.534600
0
LINE
8
Layer 1
10
61.194400
20
76.534600
11
61.235730
21
76.634381
0
LINE
8
Layer 1
10
61.235730
20
76.634381
11
61.335511
21
76.675711
0
LINE
8
Layer 1
10
61.335511
20
76.675711
11
61.335560
21
76.675700
0
LINE
8
Layer 1
10
-19.309340
20
92.804700
11
-15.217200
21
92.804700
0
LINE
8
Layer 1
10
-15.217200
20
92.804700
11
-15.117419
21
92.763370
0
LINE
8
Layer 1
10
-15.117419
20
92.763370
11
-15.076089
21
92.663589
0
LINE
8
Layer 1
10
-15.076089
20
92.663589
11
-15.076100
21
89.333400
0
LINE
8
Layer 1
10
-15.076100
20
89.333400
11
-15.117430
21
89.233619
0
LINE
8
Layer 1
10
-15.117430
20
89.233619
11
-15.217211
21
89.192289
0
LINE
8
Layer 1
10
-15.217211
20
89.192289
11
-19.309400
21
89.192300
0
LINE
8
Layer 1
10
-19.309400
20
89.192300
11
-19.409181
21
89.233630
0
LINE
8
Layer 1
10
-19.409181
20
89.233630
11
-19.450511
21
89.333411
0
LINE
8
Layer 1
10
-19.450511
20
89.333411
11
-19.450600
21
92.663600
0
LINE
8
Layer 1
10
-19.450600
20
92.663600
11
-19.409270
21
92.763381
0
LINE
8
Layer 1
10
-19.409270
20
92.763381
11
-19.309489
21
92.804711
0
LINE
8
Layer 1
10
-19.309489
20
92.804711
11
-19.309340
21
92.804700
0
LINE
8
Layer 1
10
-13.933010
20
92.804700
11
-9.840900
21
92.804700
0
LINE
8
Layer 1
10
-9.840900
20
92.804700
11
-9.741119
21
92.763370
0
LINE
8
Layer 1
10
-9.741119
20
92.763370
11
-9.699789
21
92.663589
0
LINE
8
Layer 1
10
-9.699789
20
92.663589
11
-9.699790
21
89.333400
0
LINE
8
Layer 1
10
-9.699790
20
89.333400
11
-9.741120
21
89.233619
0
LINE
8
Layer 1
10
-9.741120
20
89.233619
11
-9.840901
21
89.192289
0
LINE
8
Layer 1
10
-9.840901
20
89.192289
11
-13.933100
21
89.192300
0
LINE
8
Layer 1
10
-13.933100
20
89.192300
11
-14.032881
21
89.233630
0
LINE
8
Layer 1
10
-14.032881
20
89.233630
11
-14.074211
21
89.333411
0
LINE
8
Layer 1
10
-14.074211
20
89.333411
11
-14.074200
21
92.663600
0
LINE
8
Layer 1
10
-14.074200
20
92.663600
11
-14.032870
21
92.763381
0
LINE
8
Layer 1
10
-14.032870
20
92.763381
11
-13.933089
21
92.804711
0
LINE
8
Layer 1
10
-13.933089
20
92.804711
11
-13.933010
21
92.804700
0
LINE
8
Layer 1
10
-8.556680
20
92.804700
11
-4.464570
21
92.804700
0
LINE
8
Layer 1
10
-4.464570
20
92.804700
11
-4.364789
21
92.763370
0
LINE
8
Layer 1
10
-4.364789
20
92.763370
11
-4.323459
21
92.663589
0
LINE
8
Layer 1
10
-4.323459
20
92.663589
11
-4.323460
21
89.333400
0
LINE
8
Layer 1
10
-4.323460
20
89.333400
11
-4.364790
21
89.233619
0
LINE
8
Layer 1
10
-4.364790
20
89.233619
11
-4.464571
21
89.192289
0
LINE
8
Layer 1
10
-4.464571
20
89.192289
11
-8.556790
21
89.192300
0
LINE
8
Layer 1
10
-8.556790
20
89.192300
11
-8.656571
21
89.233630
0
LINE
8
Layer 1
10
-8.656571
20
89.233630
11
-8.697901
21
89.333411
0
LINE
8
Layer 1
10
-8.697901
20
89.333411
11
-8.697900
21
92.663600
0
LINE
8
Layer 1
10
-8.697900
20
92.663600
11
-8.656570
21
92.763381
0
LINE
8
Layer 1
10
-8.656570
20
92.763381
11
-8.556789
21
92.804711
0
LINE
8
Layer 1
10
-8.556789
20
92.804711
11
-8.556680
21
92.804700
0
LINE
8
Layer 1
10
-3.180350
20
92.804700
11
0.911758
21
92.804700
0
LINE
8
Layer 1
10
0.911758
20
92.804700
11
1.052869
21
92.663589
0
LINE
8
Layer 1
10
1.052869
20
92.663589
11
1.052870
21
89.333400
0
LINE
8
Layer 1
10
1.052870
20
89.333400
11
1.011540
21
89.233619
0
LINE
8
Layer 1
10
1.011540
20
89.233619
11
0.911759
21
89.192289
0
LINE
8
Layer 1
10
0.911759
20
89.192289
11
-3.180460
21
89.192300
0
LINE
8
Layer 1
10
-3.180460
20
89.192300
11
-3.280241
21
89.233630
0
LINE
8
Layer 1
10
-3.280241
20
89.233630
11
-3.321571
21
89.333411
0
LINE
8
Layer 1
10
-3.321571
20
89.333411
11
-3.321570
21
92.663600
0
LINE
8
Layer 1
10
-3.321570
20
92.663600
11
-3.280240
21
92.763381
0
LINE
8
Layer 1
10
-3.280240
20
92.763381
11
-3.180459
21
92.804711
0
LINE
8
Layer 1
10
-3.180459
20
92.804711
11
-3.180350
21
92.804700
0
LINE
8
Layer 1
10
2.195980
20
92.804700
11
6.288090
21
92.804700
0
LINE
8
Layer 1
10
6.288090
20
92.804700
11
6.387871
21
92.763370
0
LINE
8
Layer 1
10
6.387871
20
92.763370
11
6.429201
21
92.663589
0
LINE
8
Layer 1
10
6.429201
20
92.663589
11
6.429200
21
89.333400
0
LINE
8
Layer 1
10
6.429200
20
89.333400
11
6.387870
21
89.233619
0
LINE
8
Layer 1
10
6.387870
20
89.233619
11
6.288089
21
89.192289
0
LINE
8
Layer 1
10
6.288089
20
89.192289
11
2.195870
21
89.192300
0
LINE
8
Layer 1
10
2.195870
20
89.192300
11
2.096089
21
89.233630
0
LINE
8
Layer 1
10
2.096089
20
89.233630
11
2.054759
21
89.333411
0
LINE
8
Layer 1
10
2.054759
20
89.333411
11
2.054760
21
92.663600
0
LINE
8
Layer 1
10
2.054760
20
92.663600
11
2.096090
21
92.763381
0
LINE
8
Layer 1
10
2.096090
20
92.763381
11
2.195871
21
92.804711
0
LINE
8
Layer 1
10
2.195871
20
92.804711
11
2.195980
21
92.804700
0
LINE
8
Layer 1
10
7.572310
20
92.804700
11
11.664400
21
92.804700
0
LINE
8
Layer 1
10
11.664400
20
92.804700
11
11.764181
21
92.763370
0
LINE
8
Layer 1
10
11.764181
20
92.763370
11
11.805511
21
92.663589
0
LINE
8
Layer 1
10
11.805511
20
92.663589
11
11.805500
21
89.333400
0
LINE
8
Layer 1
10
11.805500
20
89.333400
11
11.764170
21
89.233619
0
LINE
8
Layer 1
10
11.764170
20
89.233619
11
11.664389
21
89.192289
0
LINE
8
Layer 1
10
11.664389
20
89.192289
11
7.572200
21
89.192300
0
LINE
8
Layer 1
10
7.572200
20
89.192300
11
7.472419
21
89.233630
0
LINE
8
Layer 1
10
7.472419
20
89.233630
11
7.431089
21
89.333411
0
LINE
8
Layer 1
10
7.431089
20
89.333411
11
7.431090
21
92.663600
0
LINE
8
Layer 1
10
7.431090
20
92.663600
11
7.572201
21
92.804711
0
LINE
8
Layer 1
10
7.572201
20
92.804711
11
7.572310
21
92.804700
0
LINE
8
Layer 1
10
18.325010
20
92.804700
11
22.417100
21
92.804700
0
LINE
8
Layer 1
10
22.417100
20
92.804700
11
22.516881
21
92.763370
0
LINE
8
Layer 1
10
22.516881
20
92.763370
11
22.558211
21
92.663589
0
LINE
8
Layer 1
10
22.558211
20
92.663589
11
22.558200
21
89.333400
0
LINE
8
Layer 1
10
22.558200
20
89.333400
11
22.417089
21
89.192289
0
LINE
8
Layer 1
10
22.417089
20
89.192289
11
18.324900
21
89.192300
0
LINE
8
Layer 1
10
18.324900
20
89.192300
11
18.225119
21
89.233630
0
LINE
8
Layer 1
10
18.225119
20
89.233630
11
18.183789
21
89.333411
0
LINE
8
Layer 1
10
18.183789
20
89.333411
11
18.183700
21
92.663600
0
LINE
8
Layer 1
10
18.183700
20
92.663600
11
18.225030
21
92.763381
0
LINE
8
Layer 1
10
18.225030
20
92.763381
11
18.324811
21
92.804711
0
LINE
8
Layer 1
10
18.324811
20
92.804711
11
18.325010
21
92.804700
0
LINE
8
Layer 1
10
23.701340
20
92.804700
11
27.793400
21
92.804700
0
LINE
8
Layer 1
10
27.793400
20
92.804700
11
27.893181
21
92.763370
0
LINE
8
Layer 1
10
27.893181
20
92.763370
11
27.934511
21
92.663589
0
LINE
8
Layer 1
10
27.934511
20
92.663589
11
27.934500
21
89.333400
0
LINE
8
Layer 1
10
27.934500
20
89.333400
11
27.893170
21
89.233619
0
LINE
8
Layer 1
10
27.893170
20
89.233619
11
27.793389
21
89.192289
0
LINE
8
Layer 1
10
27.793389
20
89.192289
11
23.701200
21
89.192300
0
LINE
8
Layer 1
10
23.701200
20
89.192300
11
23.560089
21
89.333411
0
LINE
8
Layer 1
10
23.560089
20
89.333411
11
23.560100
21
92.663600
0
LINE
8
Layer 1
10
23.560100
20
92.663600
11
23.701211
21
92.804711
0
LINE
8
Layer 1
10
23.701211
20
92.804711
11
23.701340
21
92.804700
0
LINE
8
Layer 1
10
29.077670
20
92.804700
11
33.169700
21
92.804700
0
LINE
8
Layer 1
10
33.169700
20
92.804700
11
33.269481
21
92.763370
0
LINE
8
Layer 1
10
33.269481
20
92.763370
11
33.310811
21
92.663589
0
LINE
8
Layer 1
10
33.310811
20
92.663589
11
33.310800
21
89.333400
0
LINE
8
Layer 1
10
33.310800
20
89.333400
11
33.269470
21
89.233619
0
LINE
8
Layer 1
10
33.269470
20
89.233619
11
33.169689
21
89.192289
0
LINE
8
Layer 1
10
33.169689
20
89.192289
11
29.077500
21
89.192300
0
LINE
8
Layer 1
10
29.077500
20
89.192300
11
28.977719
21
89.233630
0
LINE
8
Layer 1
10
28.977719
20
89.233630
11
28.936389
21
89.333411
0
LINE
8
Layer 1
10
28.936389
20
89.333411
11
28.936400
21
92.663600
0
LINE
8
Layer 1
10
28.936400
20
92.663600
11
28.977730
21
92.763381
0
LINE
8
Layer 1
10
28.977730
20
92.763381
11
29.077511
21
92.804711
0
LINE
8
Layer 1
10
29.077511
20
92.804711
11
29.077670
21
92.804700
0
LINE
8
Layer 1
10
34.454000
20
92.804700
11
38.546100
21
92.804700
0
LINE
8
Layer 1
10
38.546100
20
92.804700
11
38.645881
21
92.763370
0
LINE
8
Layer 1
10
38.645881
20
92.763370
11
38.687211
21
92.663589
0
LINE
8
Layer 1
10
38.687211
20
92.663589
11
38.687200
21
89.333400
0
LINE
8
Layer 1
10
38.687200
20
89.333400
11
38.645870
21
89.233619
0
LINE
8
Layer 1
10
38.645870
20
89.233619
11
38.546089
21
89.192289
0
LINE
8
Layer 1
10
38.546089
20
89.192289
11
34.453800
21
89.192300
0
LINE
8
Layer 1
10
34.453800
20
89.192300
11
34.354019
21
89.233630
0
LINE
8
Layer 1
10
34.354019
20
89.233630
11
34.312689
21
89.333411
0
LINE
8
Layer 1
10
34.312689
20
89.333411
11
34.312700
21
92.663600
0
LINE
8
Layer 1
10
34.312700
20
92.663600
11
34.354030
21
92.763381
0
LINE
8
Layer 1
10
34.354030
20
92.763381
11
34.453811
21
92.804711
0
LINE
8
Layer 1
10
34.453811
20
92.804711
11
34.454000
21
92.804700
0
LINE
8
Layer 1
10
39.830330
20
92.804700
11
43.922400
21
92.804700
0
LINE
8
Layer 1
10
43.922400
20
92.804700
11
44.022181
21
92.763370
0
LINE
8
Layer 1
10
44.022181
20
92.763370
11
44.063511
21
92.663589
0
LINE
8
Layer 1
10
44.063511
20
92.663589
11
44.063500
21
89.333400
0
LINE
8
Layer 1
10
44.063500
20
89.333400
11
44.022170
21
89.233619
0
LINE
8
Layer 1
10
44.022170
20
89.233619
11
43.922389
21
89.192289
0
LINE
8
Layer 1
10
43.922389
20
89.192289
11
39.830200
21
89.192300
0
LINE
8
Layer 1
10
39.830200
20
89.192300
11
39.730419
21
89.233630
0
LINE
8
Layer 1
10
39.730419
20
89.233630
11
39.689089
21
89.333411
0
LINE
8
Layer 1
10
39.689089
20
89.333411
11
39.689100
21
92.663600
0
LINE
8
Layer 1
10
39.689100
20
92.663600
11
39.730430
21
92.763381
0
LINE
8
Layer 1
10
39.730430
20
92.763381
11
39.830211
21
92.804711
0
LINE
8
Layer 1
10
39.830211
20
92.804711
11
39.830330
21
92.804700
0
LINE
8
Layer 1
10
45.206660
20
92.804700
11
49.298700
21
92.804700
0
LINE
8
Layer 1
10
49.298700
20
92.804700
11
49.398481
21
92.763370
0
LINE
8
Layer 1
10
49.398481
20
92.763370
11
49.439811
21
92.663589
0
LINE
8
Layer 1
10
49.439811
20
92.663589
11
49.439800
21
89.333400
0
LINE
8
Layer 1
10
49.439800
20
89.333400
11
49.398470
21
89.233619
0
LINE
8
Layer 1
10
49.398470
20
89.233619
11
49.298689
21
89.192289
0
LINE
8
Layer 1
10
49.298689
20
89.192289
11
45.206500
21
89.192300
0
LINE
8
Layer 1
10
45.206500
20
89.192300
11
45.106719
21
89.233630
0
LINE
8
Layer 1
10
45.106719
20
89.233630
11
45.065389
21
89.333411
0
LINE
8
Layer 1
10
45.065389
20
89.333411
11
45.065400
21
92.663600
0
LINE
8
Layer 1
10
45.065400
20
92.663600
11
45.106730
21
92.763381
0
LINE
8
Layer 1
10
45.106730
20
92.763381
11
45.206511
21
92.804711
0
LINE
8
Layer 1
10
45.206511
20
92.804711
11
45.206660
21
92.804700
0
LINE
8
Layer 1
10
53.271150
20
92.804700
11
57.363200
21
92.804700
0
LINE
8
Layer 1
10
57.363200
20
92.804700
11
57.462981
21
92.763370
0
LINE
8
Layer 1
10
57.462981
20
92.763370
11
57.504311
21
92.663589
0
LINE
8
Layer 1
10
57.504311
20
92.663589
11
57.504300
21
89.333400
0
LINE
8
Layer 1
10
57.504300
20
89.333400
11
57.462970
21
89.233619
0
LINE
8
Layer 1
10
57.462970
20
89.233619
11
57.363189
21
89.192289
0
LINE
8
Layer 1
10
57.363189
20
89.192289
11
53.271000
21
89.192300
0
LINE
8
Layer 1
10
53.271000
20
89.192300
11
53.171219
21
89.233630
0
LINE
8
Layer 1
10
53.171219
20
89.233630
11
53.129889
21
89.333411
0
LINE
8
Layer 1
10
53.129889
20
89.333411
11
53.129900
21
92.663600
0
LINE
8
Layer 1
10
53.129900
20
92.663600
11
53.171230
21
92.763381
0
LINE
8
Layer 1
10
53.171230
20
92.763381
11
53.271011
21
92.804711
0
LINE
8
Layer 1
10
53.271011
20
92.804711
11
53.271150
21
92.804700
0
LINE
8
Layer 1
10
61.335640
20
92.804700
11
65.427700
21
92.804700
0
LINE
8
Layer 1
10
65.427700
20
92.804700
11
65.568811
21
92.663589
0
LINE
8
Layer 1
10
65.568811
20
92.663589
11
65.568800
21
89.333400
0
LINE
8
Layer 1
10
65.568800
20
89.333400
11
65.527470
21
89.233619
0
LINE
8
Layer 1
10
65.527470
20
89.233619
11
65.427689
21
89.192289
0
LINE
8
Layer 1
10
65.427689
20
89.192289
11
61.335500
21
89.192300
0
LINE
8
Layer 1
10
61.335500
20
89.192300
11
61.235719
21
89.233630
0
LINE
8
Layer 1
10
61.235719
20
89.233630
11
61.194389
21
89.333411
0
LINE
8
Layer 1
10
61.194389
20
89.333411
11
61.194400
21
92.663600
0
LINE
8
Layer 1
10
61.194400
20
92.663600
11
61.235730
21
92.763381
0
LINE
8
Layer 1
10
61.235730
20
92.763381
11
61.335511
21
92.804711
0
LINE
8
Layer 1
10
61.335511
20
92.804711
11
61.335640
21
92.804700
0
LINE
8
Layer 1
10
-17.293060
20
82.052000
11
-13.201000
21
82.052100
0
LINE
8
Layer 1
10
-13.201000
20
82.052100
11
-13.101219
21
82.010770
0
LINE
8
Layer 1
10
-13.101219
20
82.010770
11
-13.059889
21
81.910989
0
LINE
8
Layer 1
10
-13.059889
20
81.910989
11
-13.059900
21
78.580700
0
LINE
8
Layer 1
10
-13.059900
20
78.580700
11
-13.101230
21
78.480919
0
LINE
8
Layer 1
10
-13.101230
20
78.480919
11
-13.201011
21
78.439589
0
LINE
8
Layer 1
10
-13.201011
20
78.439589
11
-17.293300
21
78.439600
0
LINE
8
Layer 1
10
-17.293300
20
78.439600
11
-17.393081
21
78.480930
0
LINE
8
Layer 1
10
-17.393081
20
78.480930
11
-17.434411
21
78.580711
0
LINE
8
Layer 1
10
-17.434411
20
78.580711
11
-17.434400
21
81.910900
0
LINE
8
Layer 1
10
-17.434400
20
81.910900
11
-17.393070
21
82.010681
0
LINE
8
Layer 1
10
-17.393070
20
82.010681
11
-17.293289
21
82.052011
0
LINE
8
Layer 1
10
-17.293289
20
82.052011
11
-17.293060
21
82.052000
0
LINE
8
Layer 1
10
-9.900540
20
82.052000
11
-5.808510
21
82.052100
0
LINE
8
Layer 1
10
-5.808510
20
82.052100
11
-5.708729
21
82.010770
0
LINE
8
Layer 1
10
-5.708729
20
82.010770
11
-5.667399
21
81.910989
0
LINE
8
Layer 1
10
-5.667399
20
81.910989
11
-5.667400
21
78.580700
0
LINE
8
Layer 1
10
-5.667400
20
78.580700
11
-5.708730
21
78.480919
0
LINE
8
Layer 1
10
-5.708730
20
78.480919
11
-5.808511
21
78.439589
0
LINE
8
Layer 1
10
-5.808511
20
78.439589
11
-9.900730
21
78.439600
0
LINE
8
Layer 1
10
-9.900730
20
78.439600
11
-10.000511
21
78.480930
0
LINE
8
Layer 1
10
-10.000511
20
78.480930
11
-10.041841
21
78.580711
0
LINE
8
Layer 1
10
-10.041841
20
78.580711
11
-10.041800
21
81.910900
0
LINE
8
Layer 1
10
-10.041800
20
81.910900
11
-10.000470
21
82.010681
0
LINE
8
Layer 1
10
-10.000470
20
82.010681
11
-9.900689
21
82.052011
0
LINE
8
Layer 1
10
-9.900689
20
82.052011
11
-9.900540
21
82.052000
0
LINE
8
Layer 1
10
0.852160
20
82.052000
11
4.944150
21
82.052100
0
LINE
8
Layer 1
10
4.944150
20
82.052100
11
5.043931
21
82.010770
0
LINE
8
Layer 1
10
5.043931
20
82.010770
11
5.085261
21
81.910989
0
LINE
8
Layer 1
10
5.085261
20
81.910989
11
5.085260
21
78.580700
0
LINE
8
Layer 1
10
5.085260
20
78.580700
11
5.043930
21
78.480919
0
LINE
8
Layer 1
10
5.043930
20
78.480919
11
4.944149
21
78.439589
0
LINE
8
Layer 1
10
4.944149
20
78.439589
11
0.851927
21
78.439600
0
LINE
8
Layer 1
10
0.851927
20
78.439600
11
0.752146
21
78.480930
0
LINE
8
Layer 1
10
0.752146
20
78.480930
11
0.710816
21
78.580711
0
LINE
8
Layer 1
10
0.710816
20
78.580711
11
0.710816
21
81.910900
0
LINE
8
Layer 1
10
0.710816
20
81.910900
11
0.752146
21
82.010681
0
LINE
8
Layer 1
10
0.752146
20
82.010681
11
0.851927
21
82.052011
0
LINE
8
Layer 1
10
0.851927
20
82.052011
11
0.852160
21
82.052000
0
LINE
8
Layer 1
10
6.228490
20
82.052000
11
10.320500
21
82.052100
0
LINE
8
Layer 1
10
10.320500
20
82.052100
11
10.420281
21
82.010770
0
LINE
8
Layer 1
10
10.420281
20
82.010770
11
10.461611
21
81.910989
0
LINE
8
Layer 1
10
10.461611
20
81.910989
11
10.461600
21
78.580700
0
LINE
8
Layer 1
10
10.461600
20
78.580700
11
10.420270
21
78.480919
0
LINE
8
Layer 1
10
10.420270
20
78.480919
11
10.320489
21
78.439589
0
LINE
8
Layer 1
10
10.320489
20
78.439589
11
6.228260
21
78.439600
0
LINE
8
Layer 1
10
6.228260
20
78.439600
11
6.128479
21
78.480930
0
LINE
8
Layer 1
10
6.128479
20
78.480930
11
6.087149
21
78.580711
0
LINE
8
Layer 1
10
6.087149
20
78.580711
11
6.087140
21
81.910900
0
LINE
8
Layer 1
10
6.087140
20
81.910900
11
6.128470
21
82.010681
0
LINE
8
Layer 1
10
6.128470
20
82.010681
11
6.228251
21
82.052011
0
LINE
8
Layer 1
10
6.228251
20
82.052011
11
6.228490
21
82.052000
0
LINE
8
Layer 1
10
11.604820
20
82.052000
11
15.696800
21
82.052100
0
LINE
8
Layer 1
10
15.696800
20
82.052100
11
15.796581
21
82.010770
0
LINE
8
Layer 1
10
15.796581
20
82.010770
11
15.837911
21
81.910989
0
LINE
8
Layer 1
10
15.837911
20
81.910989
11
15.837900
21
78.580700
0
LINE
8
Layer 1
10
15.837900
20
78.580700
11
15.796570
21
78.480919
0
LINE
8
Layer 1
10
15.796570
20
78.480919
11
15.696789
21
78.439589
0
LINE
8
Layer 1
10
15.696789
20
78.439589
11
11.604600
21
78.439600
0
LINE
8
Layer 1
10
11.604600
20
78.439600
11
11.504819
21
78.480930
0
LINE
8
Layer 1
10
11.504819
20
78.480930
11
11.463489
21
78.580711
0
LINE
8
Layer 1
10
11.463489
20
78.580711
11
11.463500
21
81.910900
0
LINE
8
Layer 1
10
11.463500
20
81.910900
11
11.504830
21
82.010681
0
LINE
8
Layer 1
10
11.504830
20
82.010681
11
11.604611
21
82.052011
0
LINE
8
Layer 1
10
11.604611
20
82.052011
11
11.604820
21
82.052000
0
LINE
8
Layer 1
10
16.981150
20
82.052000
11
21.073100
21
82.052100
0
LINE
8
Layer 1
10
21.073100
20
82.052100
11
21.172881
21
82.010770
0
LINE
8
Layer 1
10
21.172881
20
82.010770
11
21.214211
21
81.910989
0
LINE
8
Layer 1
10
21.214211
20
81.910989
11
21.214200
21
78.580700
0
LINE
8
Layer 1
10
21.214200
20
78.580700
11
21.172870
21
78.480919
0
LINE
8
Layer 1
10
21.172870
20
78.480919
11
21.073089
21
78.439589
0
LINE
8
Layer 1
10
21.073089
20
78.439589
11
16.980900
21
78.439600
0
LINE
8
Layer 1
10
16.980900
20
78.439600
11
16.839789
21
78.580711
0
LINE
8
Layer 1
10
16.839789
20
78.580711
11
16.839800
21
81.910900
0
LINE
8
Layer 1
10
16.839800
20
81.910900
11
16.881130
21
82.010681
0
LINE
8
Layer 1
10
16.881130
20
82.010681
11
16.980911
21
82.052011
0
LINE
8
Layer 1
10
16.980911
20
82.052011
11
16.981150
21
82.052000
0
LINE
8
Layer 1
10
22.357480
20
82.052000
11
26.449500
21
82.052100
0
LINE
8
Layer 1
10
26.449500
20
82.052100
11
26.590611
21
81.910989
0
LINE
8
Layer 1
10
26.590611
20
81.910989
11
26.590600
21
78.580700
0
LINE
8
Layer 1
10
26.590600
20
78.580700
11
26.549270
21
78.480919
0
LINE
8
Layer 1
10
26.549270
20
78.480919
11
26.449489
21
78.439589
0
LINE
8
Layer 1
10
26.449489
20
78.439589
11
22.357200
21
78.439600
0
LINE
8
Layer 1
10
22.357200
20
78.439600
11
22.257419
21
78.480930
0
LINE
8
Layer 1
10
22.257419
20
78.480930
11
22.216089
21
78.580711
0
LINE
8
Layer 1
10
22.216089
20
78.580711
11
22.216100
21
81.910900
0
LINE
8
Layer 1
10
22.216100
20
81.910900
11
22.257430
21
82.010681
0
LINE
8
Layer 1
10
22.257430
20
82.010681
11
22.357211
21
82.052011
0
LINE
8
Layer 1
10
22.357211
20
82.052011
11
22.357480
21
82.052000
0
LINE
8
Layer 1
10
27.733810
20
82.052000
11
31.825800
21
82.052100
0
LINE
8
Layer 1
10
31.825800
20
82.052100
11
31.925581
21
82.010770
0
LINE
8
Layer 1
10
31.925581
20
82.010770
11
31.966911
21
81.910989
0
LINE
8
Layer 1
10
31.966911
20
81.910989
11
31.966900
21
78.580700
0
LINE
8
Layer 1
10
31.966900
20
78.580700
11
31.925570
21
78.480919
0
LINE
8
Layer 1
10
31.925570
20
78.480919
11
31.825789
21
78.439589
0
LINE
8
Layer 1
10
31.825789
20
78.439589
11
27.733600
21
78.439600
0
LINE
8
Layer 1
10
27.733600
20
78.439600
11
27.633819
21
78.480930
0
LINE
8
Layer 1
10
27.633819
20
78.480930
11
27.592489
21
78.580711
0
LINE
8
Layer 1
10
27.592489
20
78.580711
11
27.592500
21
81.910900
0
LINE
8
Layer 1
10
27.592500
20
81.910900
11
27.733611
21
82.052011
0
LINE
8
Layer 1
10
27.733611
20
82.052011
11
27.733810
21
82.052000
0
LINE
8
Layer 1
10
33.110140
20
82.052000
11
37.202100
21
82.052100
0
LINE
8
Layer 1
10
37.202100
20
82.052100
11
37.301881
21
82.010770
0
LINE
8
Layer 1
10
37.301881
20
82.010770
11
37.343211
21
81.910989
0
LINE
8
Layer 1
10
37.343211
20
81.910989
11
37.343200
21
78.580700
0
LINE
8
Layer 1
10
37.343200
20
78.580700
11
37.301870
21
78.480919
0
LINE
8
Layer 1
10
37.301870
20
78.480919
11
37.202089
21
78.439589
0
LINE
8
Layer 1
10
37.202089
20
78.439589
11
33.109900
21
78.439600
0
LINE
8
Layer 1
10
33.109900
20
78.439600
11
33.010119
21
78.480930
0
LINE
8
Layer 1
10
33.010119
20
78.480930
11
32.968789
21
78.580711
0
LINE
8
Layer 1
10
32.968789
20
78.580711
11
32.968800
21
81.910900
0
LINE
8
Layer 1
10
32.968800
20
81.910900
11
33.010130
21
82.010681
0
LINE
8
Layer 1
10
33.010130
20
82.010681
11
33.109911
21
82.052011
0
LINE
8
Layer 1
10
33.109911
20
82.052011
11
33.110140
21
82.052000
0
LINE
8
Layer 1
10
38.486470
20
82.052000
11
42.578400
21
82.052100
0
LINE
8
Layer 1
10
42.578400
20
82.052100
11
42.678181
21
82.010770
0
LINE
8
Layer 1
10
42.678181
20
82.010770
11
42.719511
21
81.910989
0
LINE
8
Layer 1
10
42.719511
20
81.910989
11
42.719600
21
78.580700
0
LINE
8
Layer 1
10
42.719600
20
78.580700
11
42.678270
21
78.480919
0
LINE
8
Layer 1
10
42.678270
20
78.480919
11
42.578489
21
78.439589
0
LINE
8
Layer 1
10
42.578489
20
78.439589
11
38.486200
21
78.439600
0
LINE
8
Layer 1
10
38.486200
20
78.439600
11
38.386419
21
78.480930
0
LINE
8
Layer 1
10
38.386419
20
78.480930
11
38.345089
21
78.580711
0
LINE
8
Layer 1
10
38.345089
20
78.580711
11
38.345100
21
81.910900
0
LINE
8
Layer 1
10
38.345100
20
81.910900
11
38.386430
21
82.010681
0
LINE
8
Layer 1
10
38.386430
20
82.010681
11
38.486211
21
82.052011
0
LINE
8
Layer 1
10
38.486211
20
82.052011
11
38.486470
21
82.052000
0
LINE
8
Layer 1
10
43.862800
20
82.052000
11
47.954800
21
82.052100
0
LINE
8
Layer 1
10
47.954800
20
82.052100
11
48.054581
21
82.010770
0
LINE
8
Layer 1
10
48.054581
20
82.010770
11
48.095911
21
81.910989
0
LINE
8
Layer 1
10
48.095911
20
81.910989
11
48.095900
21
78.580700
0
LINE
8
Layer 1
10
48.095900
20
78.580700
11
48.054570
21
78.480919
0
LINE
8
Layer 1
10
48.054570
20
78.480919
11
47.954789
21
78.439589
0
LINE
8
Layer 1
10
47.954789
20
78.439589
11
43.862600
21
78.439600
0
LINE
8
Layer 1
10
43.862600
20
78.439600
11
43.762819
21
78.480930
0
LINE
8
Layer 1
10
43.762819
20
78.480930
11
43.721489
21
78.580711
0
LINE
8
Layer 1
10
43.721489
20
78.580711
11
43.721400
21
81.910900
0
LINE
8
Layer 1
10
43.721400
20
81.910900
11
43.762730
21
82.010681
0
LINE
8
Layer 1
10
43.762730
20
82.010681
11
43.862511
21
82.052011
0
LINE
8
Layer 1
10
43.862511
20
82.052011
11
43.862800
21
82.052000
0
LINE
8
Layer 1
10
52.599260
20
82.052000
11
56.691200
21
82.052100
0
LINE
8
Layer 1
10
56.691200
20
82.052100
11
56.790981
21
82.010770
0
LINE
8
Layer 1
10
56.790981
20
82.010770
11
56.832311
21
81.910989
0
LINE
8
Layer 1
10
56.832311
20
81.910989
11
56.832400
21
78.580700
0
LINE
8
Layer 1
10
56.832400
20
78.580700
11
56.791070
21
78.480919
0
LINE
8
Layer 1
10
56.791070
20
78.480919
11
56.691289
21
78.439589
0
LINE
8
Layer 1
10
56.691289
20
78.439589
11
52.599000
21
78.439600
0
LINE
8
Layer 1
10
52.599000
20
78.439600
11
52.499219
21
78.480930
0
LINE
8
Layer 1
10
52.499219
20
78.480930
11
52.457889
21
78.580711
0
LINE
8
Layer 1
10
52.457889
20
78.580711
11
52.457900
21
81.910900
0
LINE
8
Layer 1
10
52.457900
20
81.910900
11
52.499230
21
82.010681
0
LINE
8
Layer 1
10
52.499230
20
82.010681
11
52.599011
21
82.052011
0
LINE
8
Layer 1
10
52.599011
20
82.052011
11
52.599260
21
82.052000
0
LINE
8
Layer 1
10
61.335720
20
82.052000
11
65.427700
21
82.052100
0
LINE
8
Layer 1
10
65.427700
20
82.052100
11
65.568811
21
81.910989
0
LINE
8
Layer 1
10
65.568811
20
81.910989
11
65.568800
21
78.580700
0
LINE
8
Layer 1
10
65.568800
20
78.580700
11
65.527470
21
78.480919
0
LINE
8
Layer 1
10
65.527470
20
78.480919
11
65.427689
21
78.439589
0
LINE
8
Layer 1
10
65.427689
20
78.439589
11
61.335500
21
78.439600
0
LINE
8
Layer 1
10
61.335500
20
78.439600
11
61.235719
21
78.480930
0
LINE
8
Layer 1
10
61.235719
20
78.480930
11
61.194389
21
78.580711
0
LINE
8
Layer 1
10
61.194389
20
78.580711
11
61.194400
21
81.910900
0
LINE
8
Layer 1
10
61.194400
20
81.910900
11
61.235730
21
82.010681
0
LINE
8
Layer 1
10
61.235730
20
82.010681
11
61.335511
21
82.052011
0
LINE
8
Layer 1
10
61.335511
20
82.052011
11
61.335720
21
82.052000
0
LINE
8
Layer 1
10
-4.524180
20
82.052000
11
-0.432184
21
82.052100
0
LINE
8
Layer 1
10
-0.432184
20
82.052100
11
-0.332403
21
82.010770
0
LINE
8
Layer 1
10
-0.332403
20
82.010770
11
-0.291073
21
81.910989
0
LINE
8
Layer 1
10
-0.291073
20
81.910989
11
-0.291073
21
78.580700
0
LINE
8
Layer 1
10
-0.291073
20
78.580700
11
-0.332403
21
78.480919
0
LINE
8
Layer 1
10
-0.332403
20
78.480919
11
-0.432184
21
78.439589
0
LINE
8
Layer 1
10
-0.432184
20
78.439589
11
-4.524400
21
78.439600
0
LINE
8
Layer 1
10
-4.524400
20
78.439600
11
-4.624181
21
78.480930
0
LINE
8
Layer 1
10
-4.624181
20
78.480930
11
-4.665511
21
78.580711
0
LINE
8
Layer 1
10
-4.665511
20
78.580711
11
-4.665510
21
81.910900
0
LINE
8
Layer 1
10
-4.665510
20
81.910900
11
-4.624180
21
82.010681
0
LINE
8
Layer 1
10
-4.624180
20
82.010681
11
-4.524399
21
82.052011
0
LINE
8
Layer 1
10
-4.524399
20
82.052011
11
-4.524180
21
82.052000
0
LINE
8
Layer 1
10
12.948720
20
92.804700
11
17.040700
21
92.804700
0
LINE
8
Layer 1
10
17.040700
20
92.804700
11
17.140481
21
92.763370
0
LINE
8
Layer 1
10
17.140481
20
92.763370
11
17.181811
21
92.663589
0
LINE
8
Layer 1
10
17.181811
20
92.663589
11
17.181900
21
89.333400
0
LINE
8
Layer 1
10
17.181900
20
89.333400
11
17.140570
21
89.233619
0
LINE
8
Layer 1
10
17.140570
20
89.233619
11
17.040789
21
89.192289
0
LINE
8
Layer 1
10
17.040789
20
89.192289
11
12.948500
21
89.192300
0
LINE
8
Layer 1
10
12.948500
20
89.192300
11
12.848719
21
89.233630
0
LINE
8
Layer 1
10
12.848719
20
89.233630
11
12.807389
21
89.333411
0
LINE
8
Layer 1
10
12.807389
20
89.333411
11
12.807400
21
92.663600
0
LINE
8
Layer 1
10
12.807400
20
92.663600
11
12.848730
21
92.763381
0
LINE
8
Layer 1
10
12.848730
20
92.763381
11
12.948511
21
92.804711
0
LINE
8
Layer 1
10
12.948511
20
92.804711
11
12.948720
21
92.804700
0
LINE
8
Layer 1
10
50.429520
20
81.939200
11
52.122600
21
81.939200
0
LINE
8
Layer 1
10
52.122600
20
81.939200
11
52.222381
21
81.897870
0
LINE
8
Layer 1
10
52.222381
20
81.897870
11
52.263711
21
81.798089
0
LINE
8
Layer 1
10
52.263711
20
81.798089
11
52.263700
21
77.846900
0
LINE
8
Layer 1
10
52.263700
20
77.846900
11
52.222370
21
77.747119
0
LINE
8
Layer 1
10
52.222370
20
77.747119
11
52.122589
21
77.705789
0
LINE
8
Layer 1
10
52.122589
20
77.705789
11
50.429300
21
77.705800
0
LINE
8
Layer 1
10
50.429300
20
77.705800
11
50.329519
21
77.747130
0
LINE
8
Layer 1
10
50.329519
20
77.747130
11
50.288189
21
77.846911
0
LINE
8
Layer 1
10
50.288189
20
77.846911
11
50.288200
21
81.798100
0
LINE
8
Layer 1
10
50.288200
20
81.798100
11
50.329530
21
81.897881
0
LINE
8
Layer 1
10
50.329530
20
81.897881
11
50.429311
21
81.939211
0
LINE
8
Layer 1
10
50.429311
20
81.939211
11
50.429520
21
81.939200
0
LINE
8
Layer 1
10
57.167850
20
81.939200
11
58.861000
21
81.939200
0
LINE
8
Layer 1
10
58.861000
20
81.939200
11
58.960781
21
81.897870
0
LINE
8
Layer 1
10
58.960781
20
81.897870
11
59.002111
21
81.798089
0
LINE
8
Layer 1
10
59.002111
20
81.798089
11
59.002100
21
77.846900
0
LINE
8
Layer 1
10
59.002100
20
77.846900
11
58.960770
21
77.747119
0
LINE
8
Layer 1
10
58.960770
20
77.747119
11
58.860989
21
77.705789
0
LINE
8
Layer 1
10
58.860989
20
77.705789
11
57.167600
21
77.705800
0
LINE
8
Layer 1
10
57.167600
20
77.705800
11
57.067819
21
77.747130
0
LINE
8
Layer 1
10
57.067819
20
77.747130
11
57.026489
21
77.846911
0
LINE
8
Layer 1
10
57.026489
20
77.846911
11
57.026500
21
81.798100
0
LINE
8
Layer 1
10
57.026500
20
81.798100
11
57.067830
21
81.897881
0
LINE
8
Layer 1
10
57.067830
20
81.897881
11
57.167611
21
81.939211
0
LINE
8
Layer 1
10
57.167611
20
81.939211
11
57.167850
21
81.939200
0
LINE
8
Layer 1
10
-18.118850
20
76.562870
11
-16.425700
21
76.562800
0
LINE
8
Layer 1
10
-16.425700
20
76.562800
11
-16.284589
21
76.421689
0
LINE
8
Layer 1
10
-16.284589
20
76.421689
11
-16.284600
21
72.470600
0
LINE
8
Layer 1
10
-16.284600
20
72.470600
11
-16.425711
21
72.329489
0
LINE
8
Layer 1
10
-16.425711
20
72.329489
11
-18.119000
21
72.329500
0
LINE
8
Layer 1
10
-18.119000
20
72.329500
11
-18.218781
21
72.370830
0
LINE
8
Layer 1
10
-18.218781
20
72.370830
11
-18.260111
21
72.470611
0
LINE
8
Layer 1
10
-18.260111
20
72.470611
11
-18.260100
21
76.421700
0
LINE
8
Layer 1
10
-18.260100
20
76.421700
11
-18.218770
21
76.521481
0
LINE
8
Layer 1
10
-18.218770
20
76.521481
11
-18.118989
21
76.562811
0
LINE
8
Layer 1
10
-18.118989
20
76.562811
11
-18.118850
21
76.562870
0
LINE
8
Layer 1
10
-11.380520
20
76.562870
11
-9.687370
21
76.562800
0
LINE
8
Layer 1
10
-9.687370
20
76.562800
11
-9.587589
21
76.521470
0
LINE
8
Layer 1
10
-9.587589
20
76.521470
11
-9.546259
21
76.421689
0
LINE
8
Layer 1
10
-9.546259
20
76.421689
11
-9.546260
21
72.470600
0
LINE
8
Layer 1
10
-9.546260
20
72.470600
11
-9.587590
21
72.370819
0
LINE
8
Layer 1
10
-9.587590
20
72.370819
11
-9.687371
21
72.329489
0
LINE
8
Layer 1
10
-9.687371
20
72.329489
11
-11.380700
21
72.329500
0
LINE
8
Layer 1
10
-11.380700
20
72.329500
11
-11.480481
21
72.370830
0
LINE
8
Layer 1
10
-11.480481
20
72.370830
11
-11.521811
21
72.470611
0
LINE
8
Layer 1
10
-11.521811
20
72.470611
11
-11.521800
21
76.421700
0
LINE
8
Layer 1
10
-11.521800
20
76.421700
11
-11.480470
21
76.521481
0
LINE
8
Layer 1
10
-11.480470
20
76.521481
11
-11.380689
21
76.562811
0
LINE
8
Layer 1
10
-11.380689
20
76.562811
11
-11.380520
21
76.562870
0
LINE
8
Layer 1
10
2.053280
20
71.186540
11
3.746400
21
71.186500
0
LINE
8
Layer 1
10
3.746400
20
71.186500
11
3.846181
21
71.145170
0
LINE
8
Layer 1
10
3.846181
20
71.145170
11
3.887511
21
71.045389
0
LINE
8
Layer 1
10
3.887511
20
71.045389
11
3.887510
21
67.094300
0
LINE
8
Layer 1
10
3.887510
20
67.094300
11
3.846180
21
66.994519
0
LINE
8
Layer 1
10
3.846180
20
66.994519
11
3.746399
21
66.953189
0
LINE
8
Layer 1
10
3.746399
20
66.953189
11
2.053060
21
66.953200
0
LINE
8
Layer 1
10
2.053060
20
66.953200
11
1.953279
21
66.994530
0
LINE
8
Layer 1
10
1.953279
20
66.994530
11
1.911949
21
67.094311
0
LINE
8
Layer 1
10
1.911949
20
67.094311
11
1.911950
21
71.045400
0
LINE
8
Layer 1
10
1.911950
20
71.045400
11
1.953280
21
71.145181
0
LINE
8
Layer 1
10
1.953280
20
71.145181
11
2.053061
21
71.186511
0
LINE
8
Layer 1
10
2.053061
20
71.186511
11
2.053280
21
71.186540
0
LINE
8
Layer 1
10
30.275480
20
71.186540
11
31.968600
21
71.186500
0
LINE
8
Layer 1
10
31.968600
20
71.186500
11
32.068381
21
71.145170
0
LINE
8
Layer 1
10
32.068381
20
71.145170
11
32.109711
21
71.045389
0
LINE
8
Layer 1
10
32.109711
20
71.045389
11
32.109700
21
67.094300
0
LINE
8
Layer 1
10
32.109700
20
67.094300
11
32.068370
21
66.994519
0
LINE
8
Layer 1
10
32.068370
20
66.994519
11
31.968589
21
66.953189
0
LINE
8
Layer 1
10
31.968589
20
66.953189
11
30.275300
21
66.953200
0
LINE
8
Layer 1
10
30.275300
20
66.953200
11
30.175519
21
66.994530
0
LINE
8
Layer 1
10
30.175519
20
66.994530
11
30.134189
21
67.094311
0
LINE
8
Layer 1
10
30.134189
20
67.094311
11
30.134200
21
71.045400
0
LINE
8
Layer 1
10
30.134200
20
71.045400
11
30.175530
21
71.145181
0
LINE
8
Layer 1
10
30.175530
20
71.145181
11
30.275311
21
71.186511
0
LINE
8
Layer 1
10
30.275311
20
71.186511
11
30.275480
21
71.186540
0
LINE
8
Layer 1
10
51.101480
20
92.691840
11
52.794600
21
92.691800
0
LINE
8
Layer 1
10
52.794600
20
92.691800
11
52.894381
21
92.650470
0
LINE
8
Layer 1
10
52.894381
20
92.650470
11
52.935711
21
92.550689
0
LINE
8
Layer 1
10
52.935711
20
92.550689
11
52.935700
21
88.599600
0
LINE
8
Layer 1
10
52.935700
20
88.599600
11
52.894370
21
88.499819
0
LINE
8
Layer 1
10
52.894370
20
88.499819
11
52.794589
21
88.458489
0
LINE
8
Layer 1
10
52.794589
20
88.458489
11
51.101300
21
88.458500
0
LINE
8
Layer 1
10
51.101300
20
88.458500
11
51.001519
21
88.499830
0
LINE
8
Layer 1
10
51.001519
20
88.499830
11
50.960189
21
88.599611
0
LINE
8
Layer 1
10
50.960189
20
88.599611
11
50.960200
21
92.550700
0
LINE
8
Layer 1
10
50.960200
20
92.550700
11
51.001530
21
92.650481
0
LINE
8
Layer 1
10
51.001530
20
92.650481
11
51.101311
21
92.691811
0
LINE
8
Layer 1
10
51.101311
20
92.691811
11
51.101480
21
92.691840
0
LINE
8
Layer 1
10
57.839810
20
92.691840
11
59.532900
21
92.691800
0
LINE
8
Layer 1
10
59.532900
20
92.691800
11
59.632681
21
92.650470
0
LINE
8
Layer 1
10
59.632681
20
92.650470
11
59.674011
21
92.550689
0
LINE
8
Layer 1
10
59.674011
20
92.550689
11
59.674000
21
88.599600
0
LINE
8
Layer 1
10
59.674000
20
88.599600
11
59.632670
21
88.499819
0
LINE
8
Layer 1
10
59.632670
20
88.499819
11
59.532889
21
88.458489
0
LINE
8
Layer 1
10
59.532889
20
88.458489
11
57.839600
21
88.458500
0
LINE
8
Layer 1
10
57.839600
20
88.458500
11
57.739819
21
88.499830
0
LINE
8
Layer 1
10
57.739819
20
88.499830
11
57.698489
21
88.599611
0
LINE
8
Layer 1
10
57.698489
20
88.599611
11
57.698500
21
92.550700
0
LINE
8
Layer 1
10
57.698500
20
92.550700
11
57.739830
21
92.650481
0
LINE
8
Layer 1
10
57.739830
20
92.650481
11
57.839611
21
92.691811
0
LINE
8
Layer 1
10
57.839611
20
92.691811
11
57.839810
21
92.691840
 0 
ENDSEC
 0 
EOF