M48
; DRILL file {KiCad (6.0.4)} date Fri 01 Apr 2022 07:29:49 PM CEST
; FORMAT={-:-/ absolute / inch / decimal}
; #@! TF.CreationDate,2022-04-01T19:29:49+02:00
; #@! TF.GenerationSoftware,Kicad,Pcbnew,(6.0.4)
; #@! TF.FileFunction,NonPlated,1,2,NPTH
FMAT,2
INCH
; #@! TA.AperFunction,NonPlated,NPTH,ComponentDrill
T1C0.0256
; #@! TA.AperFunction,NonPlated,NPTH,ComponentDrill
T2C0.0669
; #@! TA.AperFunction,NonPlated,NPTH,ComponentDrill
T3C0.0709
; #@! TA.AperFunction,NonPlated,NPTH,ComponentDrill
T4C0.1200
; #@! TA.AperFunction,NonPlated,NPTH,ComponentDrill
T5C0.1570
; #@! TA.AperFunction,NonPlated,NPTH,ComponentDrill
T6C0.1929
%
G90
G05
T1
X0.6185Y-0.2185
X0.8461Y-0.2185
T2
X0.175Y-0.375
X0.2687Y-3.375
X0.3625Y-1.125
X0.4562Y-1.875
X0.575Y-0.375
X0.6437Y-2.625
X0.6687Y-3.375
X0.7625Y-1.125
X0.8562Y-1.875
X0.925Y-0.375
X1.0437Y-2.625
X1.2063Y-3.375
X1.3Y-1.125
X1.325Y-0.375
X1.4875Y-1.875
X1.6062Y-3.375
X1.675Y-0.375
X1.7Y-1.125
X1.8625Y-2.625
X1.8875Y-1.875
X2.05Y-1.125
X2.075Y-0.375
X2.1437Y-3.375
X2.2375Y-1.875
X2.2625Y-2.625
X2.425Y-0.375
X2.45Y-1.125
X2.5437Y-3.375
X2.6125Y-2.625
X2.6375Y-1.875
X2.8Y-1.125
X2.825Y-0.375
X2.9875Y-1.875
X3.0125Y-2.625
X3.175Y-0.375
X3.2Y-1.125
X3.3625Y-2.625
X3.3875Y-1.875
X3.55Y-1.125
X3.575Y-0.375
X3.7375Y-1.875
X3.7625Y-2.625
X3.925Y-0.375
X3.95Y-1.125
X4.1125Y-2.625
X4.1375Y-1.875
X4.3Y-1.125
X4.325Y-0.375
X4.4875Y-1.8671
X4.5125Y-2.625
X4.675Y-0.375
X4.7Y-1.125
X4.8625Y-2.625
X4.8875Y-1.8671
X4.9562Y-3.375
X5.05Y-1.125
X5.075Y-0.375
X5.2375Y-1.875
X5.2625Y-2.625
X5.3563Y-3.375
X5.425Y-0.375
X5.45Y-1.125
X5.6125Y-2.625
X5.6375Y-1.875
X5.8Y-1.125
X5.825Y-0.375
X5.9875Y-1.875
X6.0125Y-2.625
X6.175Y-0.375
X6.2Y-1.125
X6.3625Y-2.625
X6.3875Y-1.875
X6.55Y-1.125
X6.575Y-0.375
X6.7375Y-1.875
X6.7625Y-2.625
X6.925Y-0.375
X6.95Y-1.125
X7.1125Y-2.625
X7.1375Y-1.875
X7.3Y-1.125
X7.325Y-0.375
X7.4875Y-1.875
X7.5125Y-2.625
X7.675Y-0.375
X7.7Y-1.125
X7.7687Y-3.375
X7.8625Y-2.625
X7.8875Y-1.875
X8.05Y-1.125
X8.075Y-0.375
X8.1687Y-3.375
X8.2375Y-1.875
X8.2625Y-2.625
X8.425Y-0.375
X8.45Y-1.125
X8.6125Y-2.625
X8.6375Y-1.875
X8.7062Y-3.375
X8.8Y-1.125
X8.825Y-0.375
X8.9875Y-1.875
X9.0125Y-2.625
X9.1062Y-3.375
X9.175Y-0.375
X9.2Y-1.125
X9.3875Y-1.875
X9.55Y-1.125
X9.575Y-0.375
X9.6437Y-2.625
X9.925Y-3.375
X9.95Y-1.125
X10.0437Y-2.625
X10.2062Y-1.875
X10.3Y-0.375
X10.325Y-3.375
X10.4875Y-1.125
X10.6062Y-1.875
X10.675Y-2.625
X10.675Y-3.375
X10.7Y-0.375
X10.8875Y-1.125
X11.075Y-2.625
X11.075Y-3.375
X11.425Y-0.375
X11.425Y-1.125
X11.425Y-1.875
X11.425Y-2.625
X11.425Y-3.375
X11.825Y-0.375
X11.825Y-1.125
X11.825Y-1.875
X11.825Y-2.625
X11.825Y-3.375
T3
X0.1585Y-0.375
X0.2522Y-3.375
X0.346Y-1.125
X0.4397Y-1.875
X0.5915Y-0.375
X0.6272Y-2.625
X0.6853Y-3.375
X0.779Y-1.125
X0.8728Y-1.875
X0.9085Y-0.375
X1.0603Y-2.625
X1.1897Y-3.375
X1.2835Y-1.125
X1.3415Y-0.375
X1.471Y-1.875
X1.6228Y-3.375
X1.6585Y-0.375
X1.7165Y-1.125
X1.846Y-2.625
X1.904Y-1.875
X2.0335Y-1.125
X2.0915Y-0.375
X2.1272Y-3.375
X2.221Y-1.875
X2.279Y-2.625
X2.4085Y-0.375
X2.4665Y-1.125
X2.5603Y-3.375
X2.596Y-2.625
X2.654Y-1.875
X2.7835Y-1.125
X2.8415Y-0.375
X2.971Y-1.875
X3.029Y-2.625
X3.1585Y-0.375
X3.2165Y-1.125
X3.346Y-2.625
X3.404Y-1.875
X3.5335Y-1.125
X3.5915Y-0.375
X3.721Y-1.875
X3.779Y-2.625
X3.9085Y-0.375
X3.9665Y-1.125
X4.096Y-2.625
X4.154Y-1.875
X4.2835Y-1.125
X4.3415Y-0.375
X4.471Y-1.8671
X4.529Y-2.625
X4.6585Y-0.375
X4.7165Y-1.125
X4.846Y-2.625
X4.904Y-1.8671
X4.9397Y-3.375
X5.0335Y-1.125
X5.0915Y-0.375
X5.221Y-1.875
X5.279Y-2.625
X5.3728Y-3.375
X5.4085Y-0.375
X5.4665Y-1.125
X5.596Y-2.625
X5.654Y-1.875
X5.7835Y-1.125
X5.8415Y-0.375
X5.971Y-1.875
X6.029Y-2.625
X6.1585Y-0.375
X6.2165Y-1.125
X6.346Y-2.625
X6.404Y-1.875
X6.5335Y-1.125
X6.5915Y-0.375
X6.721Y-1.875
X6.779Y-2.625
X6.9085Y-0.375
X6.9665Y-1.125
X7.096Y-2.625
X7.154Y-1.875
X7.2835Y-1.125
X7.3415Y-0.375
X7.471Y-1.875
X7.529Y-2.625
X7.6585Y-0.375
X7.7165Y-1.125
X7.7522Y-3.375
X7.846Y-2.625
X7.904Y-1.875
X8.0335Y-1.125
X8.0915Y-0.375
X8.1853Y-3.375
X8.221Y-1.875
X8.279Y-2.625
X8.4085Y-0.375
X8.4665Y-1.125
X8.596Y-2.625
X8.654Y-1.875
X8.6897Y-3.375
X8.7835Y-1.125
X8.8415Y-0.375
X8.971Y-1.875
X9.029Y-2.625
X9.1228Y-3.375
X9.1585Y-0.375
X9.2165Y-1.125
X9.404Y-1.875
X9.5335Y-1.125
X9.5915Y-0.375
X9.6272Y-2.625
X9.9085Y-3.375
X9.9665Y-1.125
X10.0603Y-2.625
X10.1897Y-1.875
X10.2835Y-0.375
X10.3415Y-3.375
X10.471Y-1.125
X10.6228Y-1.875
X10.6585Y-2.625
X10.6585Y-3.375
X10.7165Y-0.375
X10.904Y-1.125
X11.0915Y-2.625
X11.0915Y-3.375
X11.4085Y-0.375
X11.4085Y-1.125
X11.4085Y-1.875
X11.4085Y-2.625
X11.4085Y-3.375
X11.8415Y-0.375
X11.8415Y-1.125
X11.8415Y-1.875
X11.8415Y-2.625
X11.8415Y-3.375
T4
X0.375Y-2.35
X1.3125Y-2.35
X3.1875Y-3.65
X7.125Y-3.65
X9.9375Y-1.6
X10.0312Y-0.1
X10.875Y-1.6
X10.9688Y-0.1
T5
X0.375Y-2.95
X1.3125Y-2.95
X3.1875Y-3.05
X7.125Y-3.05
X9.9375Y-2.2
X10.0312Y-0.7
X10.875Y-2.2
X10.9688Y-0.7
T6
X0.375Y-0.375
X0.4688Y-3.375
X0.5625Y-1.125
X0.6562Y-1.875
X0.8438Y-2.625
X1.125Y-0.375
X1.4062Y-3.375
X1.5Y-1.125
X1.6875Y-1.875
X1.875Y-0.375
X2.0625Y-2.625
X2.25Y-1.125
X2.3438Y-3.375
X2.4375Y-1.875
X2.625Y-0.375
X2.8125Y-2.625
X3.0Y-1.125
X3.1875Y-1.875
X3.375Y-0.375
X3.5625Y-2.625
X3.75Y-1.125
X3.9375Y-1.875
X4.125Y-0.375
X4.3125Y-2.625
X4.5Y-1.125
X4.6875Y-1.8671
X4.875Y-0.375
X5.0625Y-2.625
X5.1562Y-3.375
X5.25Y-1.125
X5.4375Y-1.875
X5.625Y-0.375
X5.8125Y-2.625
X6.0Y-1.125
X6.1875Y-1.875
X6.375Y-0.375
X6.5625Y-2.625
X6.75Y-1.125
X6.9375Y-1.875
X7.125Y-0.375
X7.3125Y-2.625
X7.5Y-1.125
X7.6875Y-1.875
X7.875Y-0.375
X7.9688Y-3.375
X8.0625Y-2.625
X8.25Y-1.125
X8.4375Y-1.875
X8.625Y-0.375
X8.8125Y-2.625
X8.9062Y-3.375
X9.0Y-1.125
X9.1875Y-1.875
X9.375Y-0.375
X9.75Y-1.125
X9.8438Y-2.625
X10.125Y-3.375
X10.4062Y-1.875
X10.5Y-0.375
X10.6875Y-1.125
X10.875Y-2.625
X10.875Y-3.375
X11.625Y-0.375
X11.625Y-1.125
X11.625Y-1.875
X11.625Y-2.625
X11.625Y-3.375
T0
M30
