G04 #@! TF.GenerationSoftware,KiCad,Pcbnew,(6.0.2)*
G04 #@! TF.CreationDate,2022-03-30T22:23:49+02:00*
G04 #@! TF.ProjectId,pcb,7063622e-6b69-4636-9164-5f7063625858,rev?*
G04 #@! TF.SameCoordinates,Original*
G04 #@! TF.FileFunction,Profile,NP*
%FSLAX46Y46*%
G04 Gerber Fmt 4.6, Leading zero omitted, Abs format (unit mm)*
G04 Created by KiCad (PCBNEW (6.0.2)) date 2022-03-30 22:23:49*
%MOMM*%
%LPD*%
G01*
G04 APERTURE LIST*
%ADD10C,0.200000*%
G04 #@! TA.AperFunction,Profile*
%ADD11C,0.200000*%
G04 #@! TD*
G04 APERTURE END LIST*
D10*
X285750264Y-3024995D02*
X285969113Y-3017410D01*
X286185041Y-2994915D01*
X286397408Y-2957898D01*
X286605575Y-2906745D01*
X286808904Y-2841845D01*
X287006754Y-2763585D01*
X287198487Y-2672352D01*
X287383464Y-2568534D01*
X287561045Y-2452519D01*
X287730591Y-2324694D01*
X287891462Y-2185447D01*
X288043021Y-2035166D01*
X288184627Y-1874237D01*
X288315641Y-1703048D01*
X288435425Y-1521988D01*
X288543339Y-1331444D01*
X130557043Y-1331444D02*
X130664956Y-1521988D01*
X130784740Y-1703048D01*
X130915754Y-1874237D01*
X131057360Y-2035166D01*
X131208919Y-2185447D01*
X131369790Y-2324694D01*
X131539336Y-2452519D01*
X131716917Y-2568534D01*
X131901894Y-2672352D01*
X132093627Y-2763585D01*
X132291477Y-2841845D01*
X132494806Y-2906745D01*
X132702973Y-2957898D01*
X132915340Y-2994915D01*
X133131268Y-3017410D01*
X133350118Y-3024995D01*
D11*
X302025279Y-524991D02*
X289873373Y-524991D01*
X48264431Y-94725081D02*
X2774994Y-94725081D01*
D10*
X1184002Y-94066071D02*
X1349037Y-94215535D01*
X1526691Y-94347054D01*
X1715489Y-94460016D01*
X1913955Y-94553809D01*
X2120614Y-94627824D01*
X2333990Y-94681448D01*
X2552608Y-94714070D01*
X2774994Y-94725081D01*
X524992Y-92475079D02*
X536002Y-92697464D01*
X568624Y-92916082D01*
X622248Y-93129458D01*
X696263Y-93336117D01*
X790056Y-93534583D01*
X903018Y-93723381D01*
X1034537Y-93901035D01*
X1184002Y-94066071D01*
D11*
X14926900Y-524991D02*
X2774994Y-524991D01*
X270823355Y-94725081D02*
X302025279Y-94725081D01*
D10*
X302025279Y-94725081D02*
X302247664Y-94714070D01*
X302466282Y-94681448D01*
X302679658Y-94627824D01*
X302886317Y-94553809D01*
X303084783Y-94460016D01*
X303273581Y-94347054D01*
X303451235Y-94215535D01*
X303616271Y-94066071D01*
X303616271Y-1184002D02*
X303451235Y-1034537D01*
X303273581Y-903018D01*
X303084783Y-790056D01*
X302886317Y-696262D01*
X302679658Y-622247D01*
X302466282Y-568623D01*
X302247664Y-536001D01*
X302025279Y-524991D01*
X19050010Y-3024995D02*
X19268859Y-3017410D01*
X19484787Y-2994915D01*
X19697154Y-2957898D01*
X19905321Y-2906745D01*
X20108650Y-2841845D01*
X20306500Y-2763585D01*
X20498233Y-2672352D01*
X20683210Y-2568534D01*
X20860791Y-2452519D01*
X21030337Y-2324694D01*
X21191208Y-2185447D01*
X21342767Y-2035166D01*
X21484373Y-1874237D01*
X21615387Y-1703048D01*
X21735171Y-1521988D01*
X21843085Y-1331444D01*
X303616271Y-94066071D02*
X303765735Y-93901035D01*
X303897254Y-93723381D01*
X304010216Y-93534583D01*
X304104009Y-93336117D01*
X304178024Y-93129458D01*
X304231648Y-92916082D01*
X304264270Y-92697464D01*
X304275281Y-92475079D01*
D11*
X210189586Y-94725081D02*
X56510650Y-94725081D01*
D10*
X262577136Y-94725081D02*
X262784172Y-94710757D01*
X262984427Y-94668771D01*
X263175464Y-94600600D01*
X263354850Y-94507719D01*
X263520148Y-94391604D01*
X263668925Y-94253733D01*
X263798744Y-94095582D01*
X263907171Y-93918628D01*
X210189586Y-94725081D02*
X210396622Y-94710757D01*
X210596877Y-94668771D01*
X210787914Y-94600600D01*
X210967300Y-94507719D01*
X211132598Y-94391604D01*
X211281375Y-94253733D01*
X211411194Y-94095582D01*
X211519621Y-93918628D01*
X282957189Y-1331444D02*
X283065102Y-1521988D01*
X283184885Y-1703048D01*
X283315900Y-1874237D01*
X283457505Y-2035166D01*
X283609064Y-2185447D01*
X283769936Y-2324694D01*
X283939482Y-2452519D01*
X284117062Y-2568534D01*
X284302039Y-2672352D01*
X284493772Y-2763585D01*
X284691622Y-2841845D01*
X284894951Y-2906745D01*
X285103119Y-2957898D01*
X285315486Y-2994915D01*
X285531414Y-3017410D01*
X285750264Y-3024995D01*
X56510650Y-94725081D02*
X56303613Y-94710757D01*
X56103358Y-94668771D01*
X55912320Y-94600600D01*
X55732934Y-94507719D01*
X55567636Y-94391604D01*
X55418860Y-94253733D01*
X55289040Y-94095582D01*
X55180614Y-93918628D01*
X55180616Y-93918629D02*
X55072702Y-93728084D01*
X54952919Y-93547024D01*
X54821904Y-93375835D01*
X54680299Y-93214907D01*
X54528740Y-93064625D01*
X54367868Y-92925378D01*
X54198323Y-92797553D01*
X54020742Y-92681538D01*
X53835765Y-92577721D01*
X53644032Y-92486488D01*
X53446182Y-92408228D01*
X53242853Y-92343327D01*
X53034686Y-92292175D01*
X52822319Y-92255157D01*
X52606391Y-92232663D01*
X52387542Y-92225079D01*
D11*
X235350216Y-94725081D02*
X218435805Y-94725081D01*
D10*
X137473227Y-524991D02*
X137266190Y-539314D01*
X137065935Y-581300D01*
X136874898Y-649471D01*
X136695512Y-742352D01*
X136530214Y-858467D01*
X136381437Y-996338D01*
X136251618Y-1154489D01*
X136143192Y-1331444D01*
X218435805Y-94725081D02*
X218228768Y-94710757D01*
X218028513Y-94668771D01*
X217837475Y-94600600D01*
X217658089Y-94507719D01*
X217492791Y-94391604D01*
X217344015Y-94253733D01*
X217214195Y-94095582D01*
X217105769Y-93918628D01*
X52387542Y-92225079D02*
X52168692Y-92232663D01*
X51952764Y-92255157D01*
X51740397Y-92292174D01*
X51532230Y-92343327D01*
X51328901Y-92408227D01*
X51131051Y-92486487D01*
X50939318Y-92577720D01*
X50754341Y-92681538D01*
X50576760Y-92797553D01*
X50407214Y-92925377D01*
X50246343Y-93064624D01*
X50094784Y-93214906D01*
X49953178Y-93375835D01*
X49822164Y-93547023D01*
X49702380Y-93728083D01*
X49594467Y-93918628D01*
D11*
X235350216Y-94725081D02*
X250425230Y-94725081D01*
D10*
X23173119Y-524991D02*
X22966082Y-539314D01*
X22765827Y-581300D01*
X22574789Y-649471D01*
X22395403Y-742352D01*
X22230105Y-858467D01*
X22081329Y-996338D01*
X21951509Y-1154489D01*
X21843083Y-1331444D01*
D11*
X129227009Y-524991D02*
X23173119Y-524991D01*
D10*
X16256935Y-1331444D02*
X16364848Y-1521988D01*
X16484631Y-1703048D01*
X16615646Y-1874237D01*
X16757251Y-2035166D01*
X16908810Y-2185447D01*
X17069682Y-2324694D01*
X17239228Y-2452519D01*
X17416808Y-2568534D01*
X17601785Y-2672352D01*
X17793518Y-2763585D01*
X17991368Y-2841845D01*
X18194697Y-2906745D01*
X18402865Y-2957898D01*
X18615232Y-2994915D01*
X18831160Y-3017410D01*
X19050010Y-3024995D01*
X266700246Y-92225079D02*
X266481396Y-92232663D01*
X266265468Y-92255157D01*
X266053101Y-92292174D01*
X265844934Y-92343327D01*
X265641605Y-92408227D01*
X265443755Y-92486487D01*
X265252022Y-92577720D01*
X265067045Y-92681538D01*
X264889464Y-92797553D01*
X264719919Y-92925377D01*
X264559047Y-93064624D01*
X264407488Y-93214906D01*
X264265883Y-93375835D01*
X264134868Y-93547023D01*
X264015085Y-93728083D01*
X263907172Y-93918628D01*
X130557044Y-1331444D02*
X130448617Y-1154489D01*
X130318798Y-996338D01*
X130170021Y-858467D01*
X130004723Y-742352D01*
X129825337Y-649471D01*
X129634300Y-581300D01*
X129434045Y-539314D01*
X129227009Y-524991D01*
X304275281Y-2774993D02*
X304264270Y-2552608D01*
X304231648Y-2333989D01*
X304178024Y-2120613D01*
X304104009Y-1913955D01*
X304010216Y-1715489D01*
X303897254Y-1526691D01*
X303765735Y-1349037D01*
X303616271Y-1184002D01*
X2774994Y-524991D02*
X2552608Y-536001D01*
X2333990Y-568623D01*
X2120614Y-622247D01*
X1913955Y-696262D01*
X1715489Y-790056D01*
X1526691Y-903018D01*
X1349037Y-1034537D01*
X1184002Y-1184002D01*
D11*
X304275281Y-92475079D02*
X304275281Y-2774993D01*
X262577136Y-94725081D02*
X250425230Y-94725081D01*
D10*
X1184002Y-1184002D02*
X1034537Y-1349037D01*
X903018Y-1526691D01*
X790056Y-1715489D01*
X696263Y-1913955D01*
X622248Y-2120613D01*
X568624Y-2333989D01*
X536002Y-2552608D01*
X524992Y-2774993D01*
X133350118Y-3024995D02*
X133568967Y-3017410D01*
X133784895Y-2994915D01*
X133997262Y-2957898D01*
X134205430Y-2906745D01*
X134408759Y-2841845D01*
X134606609Y-2763585D01*
X134798342Y-2672352D01*
X134983319Y-2568534D01*
X135160900Y-2452519D01*
X135330446Y-2324694D01*
X135491317Y-2185447D01*
X135642876Y-2035166D01*
X135784482Y-1874237D01*
X135915496Y-1703048D01*
X136035280Y-1521988D01*
X136143194Y-1331444D01*
X282957189Y-1331444D02*
X282848762Y-1154489D01*
X282718943Y-996338D01*
X282570166Y-858467D01*
X282404868Y-742352D01*
X282225482Y-649471D01*
X282034445Y-581300D01*
X281834190Y-539314D01*
X281627154Y-524991D01*
X269493319Y-93918629D02*
X269601746Y-94095583D01*
X269731565Y-94253734D01*
X269880341Y-94391605D01*
X270045640Y-94507719D01*
X270225026Y-94600600D01*
X270416063Y-94668772D01*
X270616318Y-94710757D01*
X270823355Y-94725081D01*
X214312696Y-92225079D02*
X214093846Y-92232663D01*
X213877918Y-92255157D01*
X213665551Y-92292174D01*
X213457384Y-92343327D01*
X213254055Y-92408227D01*
X213056205Y-92486487D01*
X212864472Y-92577720D01*
X212679495Y-92681538D01*
X212501914Y-92797553D01*
X212332369Y-92925377D01*
X212171497Y-93064624D01*
X212019938Y-93214906D01*
X211878333Y-93375835D01*
X211747318Y-93547023D01*
X211627535Y-93728083D01*
X211519622Y-93918628D01*
X16256935Y-1331444D02*
X16148508Y-1154489D01*
X16018689Y-996338D01*
X15869912Y-858467D01*
X15704614Y-742352D01*
X15525228Y-649471D01*
X15334191Y-581300D01*
X15133936Y-539314D01*
X14926900Y-524991D01*
D11*
X281627154Y-524991D02*
X137473227Y-524991D01*
X524992Y-92475079D02*
X524992Y-2774993D01*
D10*
X217105770Y-93918629D02*
X216997856Y-93728084D01*
X216878073Y-93547024D01*
X216747058Y-93375835D01*
X216605453Y-93214907D01*
X216453894Y-93064625D01*
X216293022Y-92925378D01*
X216123477Y-92797553D01*
X215945896Y-92681538D01*
X215760919Y-92577721D01*
X215569186Y-92486488D01*
X215371336Y-92408228D01*
X215168007Y-92343327D01*
X214959840Y-92292175D01*
X214747473Y-92255157D01*
X214531545Y-92232663D01*
X214312696Y-92225079D01*
X48264431Y-94725081D02*
X48471467Y-94710757D01*
X48671722Y-94668771D01*
X48862760Y-94600600D01*
X49042146Y-94507719D01*
X49207444Y-94391604D01*
X49356221Y-94253733D01*
X49486040Y-94095582D01*
X49594467Y-93918628D01*
X269493320Y-93918629D02*
X269385406Y-93728084D01*
X269265623Y-93547024D01*
X269134608Y-93375835D01*
X268993003Y-93214907D01*
X268841444Y-93064625D01*
X268680572Y-92925378D01*
X268511027Y-92797553D01*
X268333446Y-92681538D01*
X268148469Y-92577721D01*
X267956736Y-92486488D01*
X267758886Y-92408228D01*
X267555557Y-92343327D01*
X267347390Y-92292175D01*
X267135023Y-92255157D01*
X266919095Y-92232663D01*
X266700246Y-92225079D01*
X289873373Y-524991D02*
X289666336Y-539314D01*
X289466081Y-581300D01*
X289275043Y-649471D01*
X289095657Y-742352D01*
X288930359Y-858467D01*
X288781583Y-996338D01*
X288651763Y-1154489D01*
X288543337Y-1331444D01*
M02*
