M48
; DRILL file {KiCad (6.0.2)} date Wed 30 Mar 2022 10:24:20 PM CEST
; FORMAT={-:-/ absolute / inch / decimal}
; #@! TF.CreationDate,2022-03-30T22:24:20+02:00
; #@! TF.GenerationSoftware,Kicad,Pcbnew,(6.0.2)
; #@! TF.FileFunction,Plated,1,2,PTH
FMAT,2
INCH
; #@! TA.AperFunction,Plated,PTH,ViaDrill
T1C0.0157
; #@! TA.AperFunction,Plated,PTH,ComponentDrill
T2C0.0236
; #@! TA.AperFunction,Plated,PTH,ComponentDrill
T3C0.0551
; #@! TA.AperFunction,Plated,PTH,ComponentDrill
T4C0.0984
%
G90
G05
T1
X0.6169Y-1.5142
X0.718Y-0.5733
X0.794Y-0.456
X0.8189Y-0.5079
X0.8445Y-1.5098
X0.8638Y-2.0394
X0.876Y-0.5256
X0.8811Y-1.9933
X0.902Y-1.9571
X0.9106Y-1.5669
X0.924Y-1.9154
X0.9425Y-1.8657
X0.9535Y-1.6449
X1.0579Y-1.7969
X1.0602Y-1.9673
X1.0748Y-1.685
X1.0949Y-1.9972
X1.1Y-1.7949
X1.1016Y-1.7161
X1.1154Y-1.7583
X1.1268Y-1.8705
X1.1287Y-1.8256
X1.1575Y-1.5374
X1.1752Y-2.0492
X1.1791Y-1.4016
X1.1819Y-0.8024
X1.2031Y-0.8417
X1.2224Y-1.7165
X1.2465Y-0.8492
X1.2539Y-1.689
X1.2547Y-1.7776
X1.2559Y-1.3583
X1.259Y-1.4664
X1.2705Y-1.1898
X1.2776Y-1.7224
X1.3243Y-1.5261
X1.3276Y-2.048
X1.3465Y-1.189
X1.3504Y-1.9244
X1.3571Y-2.0138
X1.3677Y-0.5429
X1.3689Y-0.6087
X1.3832Y-1.9818
X1.3846Y-1.8555
X1.3882Y-1.4252
X1.5795Y-2.9764
X1.6264Y-1.6094
X1.6313Y-2.979
X1.6654Y-3.0075
X1.6717Y-1.7165
X1.7638Y-0.4488
T3
X0.2254Y-0.2746
X0.2766Y-0.2175
X0.3191Y-3.2746
X0.3703Y-3.2175
X0.4129Y-1.0246
X0.4641Y-0.9675
X0.5066Y-1.7746
X0.5578Y-1.7175
X0.6941Y-2.5246
X0.7453Y-2.4675
X0.9754Y-0.2746
X1.0266Y-0.2175
X1.2566Y-3.2746
X1.3078Y-3.2175
X1.3504Y-1.0246
X1.4016Y-0.9675
X1.5379Y-1.7746
X1.5891Y-1.7175
X1.7254Y-0.2746
X1.7766Y-0.2175
X1.9129Y-2.5246
X1.9641Y-2.4675
X2.1004Y-1.0246
X2.1516Y-0.9675
X2.1941Y-3.2746
X2.2453Y-3.2175
X2.2879Y-1.7746
X2.3391Y-1.7175
X2.4754Y-0.2746
X2.5266Y-0.2175
X2.6629Y-2.5246
X2.7141Y-2.4675
X2.8504Y-1.0246
X2.9016Y-0.9675
X3.0379Y-1.7746
X3.0891Y-1.7175
X3.2254Y-0.2746
X3.2766Y-0.2175
X3.4129Y-2.5246
X3.4641Y-2.4675
X3.6004Y-1.0246
X3.6516Y-0.9675
X3.7879Y-1.7746
X3.8391Y-1.7175
X3.9754Y-0.2746
X4.0266Y-0.2175
X4.1629Y-2.5246
X4.2141Y-2.4675
X4.3504Y-1.0246
X4.4016Y-0.9675
X4.5379Y-1.7667
X4.5891Y-1.7096
X4.7254Y-0.2746
X4.7766Y-0.2175
X4.9129Y-2.5246
X4.9641Y-2.4675
X5.0066Y-3.2746
X5.0578Y-3.2175
X5.1004Y-1.0246
X5.1516Y-0.9675
X5.2879Y-1.7746
X5.3391Y-1.7175
X5.4754Y-0.2746
X5.5266Y-0.2175
X5.6629Y-2.5246
X5.7141Y-2.4675
X5.8504Y-1.0246
X5.9016Y-0.9675
X6.0379Y-1.7746
X6.0891Y-1.7175
X6.2254Y-0.2746
X6.2766Y-0.2175
X6.4129Y-2.5246
X6.4641Y-2.4675
X6.6004Y-1.0246
X6.6516Y-0.9675
X6.7879Y-1.7746
X6.8391Y-1.7175
X6.9754Y-0.2746
X7.0266Y-0.2175
X7.1629Y-2.5246
X7.2141Y-2.4675
X7.3504Y-1.0246
X7.4016Y-0.9675
X7.5379Y-1.7746
X7.5891Y-1.7175
X7.7254Y-0.2746
X7.7766Y-0.2175
X7.8191Y-3.2746
X7.8703Y-3.2175
X7.9129Y-2.5246
X7.9641Y-2.4675
X8.1004Y-1.0246
X8.1516Y-0.9675
X8.2879Y-1.7746
X8.3391Y-1.7175
X8.4754Y-0.2746
X8.5266Y-0.2175
X8.6629Y-2.5246
X8.7141Y-2.4675
X8.7566Y-3.2746
X8.8078Y-3.2175
X8.8504Y-1.0246
X8.9016Y-0.9675
X9.0379Y-1.7746
X9.0891Y-1.7175
X9.2254Y-0.2746
X9.2766Y-0.2175
X9.6004Y-1.0246
X9.6516Y-0.9675
X9.6941Y-2.5246
X9.7453Y-2.4675
X9.9754Y-3.2746
X10.0266Y-3.2175
X10.2566Y-1.7746
X10.3078Y-1.7175
X10.3504Y-0.2746
X10.4016Y-0.2175
X10.5379Y-1.0246
X10.5891Y-0.9675
X10.7254Y-2.5246
X10.7254Y-3.2746
X10.7766Y-2.4675
X10.7766Y-3.2175
X11.4754Y-0.2746
X11.4754Y-1.0246
X11.4754Y-1.7746
X11.4754Y-2.5246
X11.4754Y-3.2746
X11.5266Y-0.2175
X11.5266Y-0.9675
X11.5266Y-1.7175
X11.5266Y-2.4675
X11.5266Y-3.2175
T2
G00X0.5622Y-0.063
M15
G01X0.5622Y-0.0866
M16
G05
G00X0.5622Y-0.2177
M15
G01X0.5622Y-0.261
M16
G05
G00X0.9024Y-0.063
M15
G01X0.9024Y-0.0866
M16
G05
G00X0.9024Y-0.2177
M15
G01X0.9024Y-0.261
M16
G05
T3
G00X0.4734Y-0.1752
M15
G01X0.4734Y-0.1969
M16
G05
G00X0.5672Y-3.1752
M15
G01X0.5672Y-3.1969
M16
G05
G00X0.6609Y-0.9252
M15
G01X0.6609Y-0.9469
M16
G05
G00X0.7547Y-1.6752
M15
G01X0.7547Y-1.6969
M16
G05
G00X0.9422Y-2.4252
M15
G01X0.9422Y-2.4469
M16
G05
G00X1.2234Y-0.1752
M15
G01X1.2234Y-0.1969
M16
G05
G00X1.5047Y-3.1752
M15
G01X1.5047Y-3.1969
M16
G05
G00X1.5984Y-0.9252
M15
G01X1.5984Y-0.9469
M16
G05
G00X1.7859Y-1.6752
M15
G01X1.7859Y-1.6969
M16
G05
G00X1.9734Y-0.1752
M15
G01X1.9734Y-0.1969
M16
G05
G00X2.1609Y-2.4252
M15
G01X2.1609Y-2.4469
M16
G05
G00X2.3484Y-0.9252
M15
G01X2.3484Y-0.9469
M16
G05
G00X2.4422Y-3.1752
M15
G01X2.4422Y-3.1969
M16
G05
G00X2.5359Y-1.6752
M15
G01X2.5359Y-1.6969
M16
G05
G00X2.7234Y-0.1752
M15
G01X2.7234Y-0.1969
M16
G05
G00X2.9109Y-2.4252
M15
G01X2.9109Y-2.4469
M16
G05
G00X3.0984Y-0.9252
M15
G01X3.0984Y-0.9469
M16
G05
G00X3.2859Y-1.6752
M15
G01X3.2859Y-1.6969
M16
G05
G00X3.4734Y-0.1752
M15
G01X3.4734Y-0.1969
M16
G05
G00X3.6609Y-2.4252
M15
G01X3.6609Y-2.4469
M16
G05
G00X3.8484Y-0.9252
M15
G01X3.8484Y-0.9469
M16
G05
G00X4.0359Y-1.6752
M15
G01X4.0359Y-1.6969
M16
G05
G00X4.2234Y-0.1752
M15
G01X4.2234Y-0.1969
M16
G05
G00X4.4109Y-2.4252
M15
G01X4.4109Y-2.4469
M16
G05
G00X4.5984Y-0.9252
M15
G01X4.5984Y-0.9469
M16
G05
G00X4.7859Y-1.6673
M15
G01X4.7859Y-1.689
M16
G05
G00X4.9734Y-0.1752
M15
G01X4.9734Y-0.1969
M16
G05
G00X5.1609Y-2.4252
M15
G01X5.1609Y-2.4469
M16
G05
G00X5.2547Y-3.1752
M15
G01X5.2547Y-3.1969
M16
G05
G00X5.3484Y-0.9252
M15
G01X5.3484Y-0.9469
M16
G05
G00X5.5359Y-1.6752
M15
G01X5.5359Y-1.6969
M16
G05
G00X5.7234Y-0.1752
M15
G01X5.7234Y-0.1969
M16
G05
G00X5.9109Y-2.4252
M15
G01X5.9109Y-2.4469
M16
G05
G00X6.0984Y-0.9252
M15
G01X6.0984Y-0.9469
M16
G05
G00X6.2859Y-1.6752
M15
G01X6.2859Y-1.6969
M16
G05
G00X6.4734Y-0.1752
M15
G01X6.4734Y-0.1969
M16
G05
G00X6.6609Y-2.4252
M15
G01X6.6609Y-2.4469
M16
G05
G00X6.8484Y-0.9252
M15
G01X6.8484Y-0.9469
M16
G05
G00X7.0359Y-1.6752
M15
G01X7.0359Y-1.6969
M16
G05
G00X7.2234Y-0.1752
M15
G01X7.2234Y-0.1969
M16
G05
G00X7.4109Y-2.4252
M15
G01X7.4109Y-2.4469
M16
G05
G00X7.5984Y-0.9252
M15
G01X7.5984Y-0.9469
M16
G05
G00X7.7859Y-1.6752
M15
G01X7.7859Y-1.6969
M16
G05
G00X7.9734Y-0.1752
M15
G01X7.9734Y-0.1969
M16
G05
G00X8.0672Y-3.1752
M15
G01X8.0672Y-3.1969
M16
G05
G00X8.1609Y-2.4252
M15
G01X8.1609Y-2.4469
M16
G05
G00X8.3484Y-0.9252
M15
G01X8.3484Y-0.9469
M16
G05
G00X8.5359Y-1.6752
M15
G01X8.5359Y-1.6969
M16
G05
G00X8.7234Y-0.1752
M15
G01X8.7234Y-0.1969
M16
G05
G00X8.9109Y-2.4252
M15
G01X8.9109Y-2.4469
M16
G05
G00X9.0047Y-3.1752
M15
G01X9.0047Y-3.1969
M16
G05
G00X9.0984Y-0.9252
M15
G01X9.0984Y-0.9469
M16
G05
G00X9.2859Y-1.6752
M15
G01X9.2859Y-1.6969
M16
G05
G00X9.4734Y-0.1752
M15
G01X9.4734Y-0.1969
M16
G05
G00X9.8484Y-0.9252
M15
G01X9.8484Y-0.9469
M16
G05
G00X9.9422Y-2.4252
M15
G01X9.9422Y-2.4469
M16
G05
G00X10.2234Y-3.1752
M15
G01X10.2234Y-3.1969
M16
G05
G00X10.5047Y-1.6752
M15
G01X10.5047Y-1.6969
M16
G05
G00X10.5984Y-0.1752
M15
G01X10.5984Y-0.1969
M16
G05
G00X10.7859Y-0.9252
M15
G01X10.7859Y-0.9469
M16
G05
G00X10.9734Y-2.4252
M15
G01X10.9734Y-2.4469
M16
G05
G00X10.9734Y-3.1752
M15
G01X10.9734Y-3.1969
M16
G05
G00X11.7234Y-0.1752
M15
G01X11.7234Y-0.1969
M16
G05
G00X11.7234Y-0.9252
M15
G01X11.7234Y-0.9469
M16
G05
G00X11.7234Y-1.6752
M15
G01X11.7234Y-1.6969
M16
G05
G00X11.7234Y-2.4252
M15
G01X11.7234Y-2.4469
M16
G05
G00X11.7234Y-3.1752
M15
G01X11.7234Y-3.1969
M16
G05
T4
G00X0.8883Y-3.375
M15
G01X0.9867Y-3.375
M16
G05
G00X0.9587Y-1.125
M15
G01X1.0571Y-1.125
M16
G05
G00X0.999Y-3.375
M15
G01X1.0974Y-3.375
M16
G05
G00X5.0133Y-1.8671
M15
G01X5.1117Y-1.8671
M16
G05
G00X5.5758Y-1.4862
M15
G01X5.6742Y-1.4862
M16
G05
G00X7.4508Y-3.3671
M15
G01X7.5492Y-3.3671
M16
G05
G00X10.2037Y-1.1113
M15
G01X10.3022Y-1.1113
M16
G05
T0
M30
